<svg xmlns="http://www.w3.org/2000/svg" width="3000" height="3000" viewBox="0 0 3000 3000"><defs><style>.cls-1{fill:#fff;}.cls-2{opacity:0.25;}.cls-3{fill:#a6bdff;}.cls-4{fill:#e7327f;}.cls-5{fill:#ffb73f;}.cls-6{fill:#99d0ee;}.cls-7{fill:#dea4a4;}.cls-8{fill:#f0bebe;}.cls-9{opacity:0.72;}.cls-10{fill:#f5dfdf;}.cls-11{fill:#394e85;}.cls-12{fill:#ff9fc4;}.cls-13{fill:#f5cbcb;}.cls-14{fill:#e6b3b3;}.cls-15{fill:#ffce7d;}.cls-16{opacity:0.15;}.cls-17{opacity:0.19;}</style></defs><g id="レイヤー_2" data-name="レイヤー 2"><g id="Layer_1" data-name="Layer 1"><rect class="cls-1" width="3000" height="3000"/><g class="cls-2"><path class="cls-3" d="M2266.17,1800.45c-77.64,102.81-254,241.17-497.14,343.7-40.69,17.18-83.24,33.35-127.53,48.17q-6.12,2-12.25,4.06c-62.44,20.57-124.51,38.32-184.17,52.35-52.15,12.3-102.42,21.76-149.42,27.84q-3.83.51-7.6,1-25.1,3.09-48.81,4.82c-365.57,26.49-572.19-63.57-521.86-268S434,1940.64,417.91,1646.77c-3.72-68.2,18.94-129.94,59.24-185.61,17.19-23.78,37.6-46.44,60.53-68,130.91-123.29,344-211.57,511.81-270.69l.88-.32c3.61-1.26,7.18-2.53,10.73-3.75,26.35-9.2,51.44-17.64,74.82-25.39,1.21-.39,2.4-.79,3.61-1.17q35.87-11.73,72.94-20.62c123.15-29.76,253.85-37.15,373.34-28.67q30.8,2.16,60.47,5.72c6.08.72,12.12,1.5,18.11,2.29,30.5,4.1,59.87,9.23,87.76,15.28,28.12,6.1,54.73,13.12,79.47,20.94q14.06,4.46,27.25,9.22,8.89,3.19,17.36,6.55c99.45,39.28,156.59,92.9,138,149.25-51.46,156.14,35.58,148.5,207.17,194.37S2377.59,1652.92,2266.17,1800.45Z"/></g><path class="cls-4" d="M2134.2,1818.32c-38.84,53-3.52,115.39-82.4,162.47s-127.29,9.42-195.51,74.17c-29.68,28.2-37.77,54.82-50.34,77.18-47.11,19.9-96.35,38.61-147.61,55.77l-14.19,4.7c-121.25-5.12-109.23-116.45-109.23-116.45s-.33-54.16,58.87-117.73c36.46-39.17,124.61-24.72,150.6-74.19s27.17-101.25,77.82-129.51,101.25,17.66,176.6-55.33,120.09-79.28,159-52.59S2173.07,1765.33,2134.2,1818.32Z"/><path class="cls-1" d="M1616.63,2096.19a2.35,2.35,0,0,1-2.19-3.2c8.09-20.91,28.69-48.37,120.1-93.49,35.41-17.48,58.22-46.85,82.38-78,31.91-41.08,64.9-83.56,129.95-101.17,110.74-30,190.84-174,191.64-175.47a2.35,2.35,0,1,1,4.13,2.26c-.8,1.47-81.85,147.23-194.54,177.75-63.53,17.2-96,59-127.46,99.52-24.5,31.53-47.64,61.33-84,79.28-90,44.41-110,70.91-117.8,91A2.35,2.35,0,0,1,1616.63,2096.19Z"/><path class="cls-5" d="M1194.8,2271.39l.75-4.9c-201.68-31.13-342.29-19.62-343.69-19.5l.42,4.94C853.67,2251.81,993.74,2240.35,1194.8,2271.39Z"/><path class="cls-5" d="M810,2254c9.8-9.53,36.25-21.7,51.23-14.95,19.55,8.81,8.59,21-20,21.42C804.53,2261,797.29,2266.35,810,2254Z"/><path class="cls-5" d="M869.9,2286.52c2.94-13.34,18.35-38.05,34.58-40.65,21.17-3.39,18.7,12.8-4.92,28.88C869.2,2295.42,866.07,2303.86,869.9,2286.52Z"/><path class="cls-5" d="M897.71,2202.45c1.57,13.57,14.4,39.71,30.28,43.94,20.72,5.52,19.9-10.83-2-29.23C897.92,2193.52,895.66,2184.81,897.71,2202.45Z"/><path class="cls-5" d="M963.69,2196c-1.43,13.58,5.36,41.9,19.94,49.5,19,9.91,21.78-6.22,4.47-28.95C965.85,2187.32,965.55,2178.33,963.69,2196Z"/><path class="cls-5" d="M1007.41,2199.28c-1.43,13.59,5.37,41.9,19.94,49.5,19,9.91,21.79-6.22,4.47-29C1009.57,2190.61,1009.27,2181.62,1007.41,2199.28Z"/><path class="cls-5" d="M1066.43,2203.36c-1.43,13.59,5.37,41.9,19.94,49.5,19,9.91,21.79-6.22,4.47-29C1068.59,2194.69,1068.29,2185.7,1066.43,2203.36Z"/><path class="cls-5" d="M927.2,2289.88c2.26-13.48,16.39-38.94,32.47-42.36,21-4.46,19.32,11.83-3.45,29.1C927,2298.81,924.26,2307.39,927.2,2289.88Z"/><path class="cls-5" d="M977.08,2291.61c2.26-13.48,16.39-38.94,32.46-42.36,21-4.46,19.33,11.83-3.44,29.09C976.83,2300.54,974.14,2309.12,977.08,2291.61Z"/><path class="cls-5" d="M1033.62,2306.55c-2.45-13.44,2.2-42.18,16.16-50.86,18.2-11.31,22.19,4.57,6.64,28.53C1036.42,2315,1036.8,2324,1033.62,2306.55Z"/><path class="cls-5" d="M1103.76,2312.3c-2.45-13.44,2.2-42.19,16.16-50.86,18.2-11.32,22.19,4.56,6.64,28.53C1106.56,2320.78,1106.94,2329.77,1103.76,2312.3Z"/><path class="cls-5" d="M1589.77,2006.18l-4-3.12c128.37-166,241.37-256.89,242.5-257.79l3.18,4C1830.29,1750.15,1717.73,1840.74,1589.77,2006.18Z"/><path class="cls-5" d="M1864.37,1720.85c-14-.17-42.38,9.48-48.78,25.12-8.34,20.4,8.44,21.71,30.06,1.83C1873.45,1722.24,1882.63,1721.08,1864.37,1720.85Z"/><path class="cls-5" d="M1842.75,1787.51c-11.64-7.86-40.61-15.38-54.55-5.83-18.18,12.45-4.89,22.77,24.1,18C1849.58,1793.66,1857.88,1797.74,1842.75,1787.51Z"/><path class="cls-5" d="M1762.52,1744.5c8.43,11.24,17.37,39.81,8.51,54.21-11.54,18.77-22.5,6-19.22-23.19C1756,1738,1751.56,1729.9,1762.52,1744.5Z"/><path class="cls-5" d="M1708.74,1786.38c10.68,9.12,25.66,35,20.17,51-7.16,20.84-20.65,10.78-23.83-18.42C1701,1781.44,1694.86,1774.53,1708.74,1786.38Z"/><path class="cls-5" d="M1678.47,1819.78c10.68,9.12,25.65,35,20.16,51-7.15,20.84-20.65,10.78-23.82-18.42C1670.72,1814.85,1664.58,1807.93,1678.47,1819.78Z"/><path class="cls-5" d="M1637.34,1864.6c10.69,9.12,25.66,35,20.17,51-7.16,20.85-20.65,10.78-23.83-18.42C1629.6,1859.66,1623.46,1852.74,1637.34,1864.6Z"/><path class="cls-5" d="M1802.41,1830.57c-11.23-8.45-39.78-17.43-54.19-8.6-18.8,11.51-6,22.5,23.15,19.25C1808.91,1837.06,1817,1841.55,1802.41,1830.57Z"/><path class="cls-5" d="M1766.43,1867.16c-11.22-8.45-39.78-17.43-54.19-8.6-18.79,11.51-6,22.5,23.16,19.25C1772.93,1873.65,1781,1878.14,1766.43,1867.16Z"/><path class="cls-5" d="M1734.85,1918.33c-7.69-11.76-31.5-29.91-48-26.5-21.59,4.45-13.32,19.12,15.24,26C1738.76,1926.64,1744.84,1933.61,1734.85,1918.33Z"/><path class="cls-5" d="M1686.61,1972.25c-7.69-11.75-31.5-29.9-48-26.49-21.58,4.45-13.32,19.11,15.25,26C1690.52,1980.56,1696.6,1987.53,1686.61,1972.25Z"/><path class="cls-4" d="M1097.33,1652.48l4.89-1.94c-79.67-201.32-165.63-323.85-166.49-325.06l-4.29,3C932.29,1329.73,1017.91,1451.79,1097.33,1652.48Z"/><path class="cls-4" d="M906.9,1290.91c14,3.86,39.3,21.55,41.16,38.89,2.42,22.61-14.59,19.1-30.33-6.81C897.5,1289.69,888.74,1285.91,906.9,1290.91Z"/><path class="cls-4" d="M909.23,1363.19c13.79-4.46,44.67-3.61,55.75,9.86,14.45,17.55-1.69,24-29.07,11C900.7,1367.33,891.3,1369,909.23,1363.19Z"/><path class="cls-4" d="M1001.09,1343.56c-11.58,8.72-28.63,34.48-24,51.29,6.06,21.92,20.59,12.4,25.7-17.48C1009.38,1339,1016.14,1332.22,1001.09,1343.56Z"/><path class="cls-4" d="M1042.4,1400.48c-13.21,6-35.48,27.39-34.62,44.81,1.12,22.71,17.38,16.6,28.9-11.44C1051.49,1397.81,1059.56,1392.72,1042.4,1400.48Z"/><path class="cls-4" d="M1062.84,1442.27c-13.21,6-35.48,27.39-34.62,44.8,1.12,22.72,17.38,16.61,28.9-11.43C1071.93,1439.6,1080,1434.5,1062.84,1442.27Z"/><path class="cls-4" d="M1090.76,1498.49c-13.21,6-35.48,27.38-34.62,44.8,1.12,22.71,17.38,16.6,28.9-11.43C1099.85,1495.81,1107.92,1490.72,1090.76,1498.49Z"/><path class="cls-4" d="M936.88,1417.44c13.55-5.16,44.43-5.88,56.18,7,15.33,16.8-.46,24-28.47,12.45C928.58,1422,919.28,1424.14,936.88,1417.44Z"/><path class="cls-4" d="M962.05,1464c13.55-5.15,44.43-5.87,56.19,7,15.32,16.8-.47,24-28.48,12.45C953.75,1468.59,944.45,1470.73,962.05,1464Z"/><path class="cls-4" d="M978.7,1523.8c11-9.45,39.79-20.62,55.22-12.49,20.12,10.6,7.72,22.76-22.56,21.38C972.44,1530.91,964.41,1536.08,978.7,1523.8Z"/><path class="cls-4" d="M1011.06,1591.08c11-9.45,39.79-20.61,55.22-12.49,20.12,10.6,7.72,22.77-22.56,21.39C1004.8,1598.2,996.77,1603.37,1011.06,1591.08Z"/><path class="cls-6" d="M722.66,1262.23c-89.6-5.58-65.7,124.88-5,182.41s31.92,124.37,108,204,154.11,55.95,175.35,128.24,57.68,176.94,124.51,222.3,137.86,43.27,137.86,43.27l128.46-94.69s-175.27-102.45-191-158.73-45.09-197.94-165-229.15-113.65-129.73-155.88-183.74S767.5,1265,722.66,1262.23Z"/><path class="cls-1" d="M1190.62,1755.07a2.11,2.11,0,0,1-1.23-.7c-62.31-74.61-140.32-131.74-189.43-139l-1.71-.27c-52.41-8.84-140.14-74.44-164.93-172.56-25.08-99.27-139.3-165.32-140.45-166a2,2,0,1,1,2-3.53c1.17.66,116.89,67.58,142.38,168.51,24.63,97.5,112.07,162.36,163.29,169.8l1.8.28c50.2,8.47,128,65.73,190.17,140.14a2,2,0,0,1-1.9,3.31Z"/><path class="cls-7" d="M1791.05,938.52c45.67-.62,110.41,0,110.41,0l-39,152.12-42.33,63.08,73.2,37.75L1695.6,1349.63s-60.34-290.54-54.24-297.18S1791.05,938.52,1791.05,938.52Z"/><path class="cls-8" d="M1703,1754.32a43.57,43.57,0,0,0-17.28,14.16c-47.46,62.91-8.86,279.9-44.23,423.84-124.11,41.57-247.36,72.22-353.44,85.21-10.61-14.18-19.9-50.06-28.1-95.37-20.83-115.1-34.67-291.1-45.51-327.2-4.86-16.15-14.81-38.85-26.35-62.72-14.58-30.14-31.69-62.12-44.25-85-8.08-14.71-14.29-25.66-16.71-29.91,0-.06-.08-.09-.09-.15-.67-1.17-1-1.8-1-1.8h.13c1.64.12,18,1.1,44.28,2.84,12.07.79,26.24,1.75,42,2.85,25.93,1.83,56.24,4,88.9,6.55,22,1.72,45.09,3.59,68.61,5.57C1549.8,1708.46,1754.84,1731.54,1703,1754.32Z"/><path class="cls-8" d="M1305.33,1704.64s11,226.82-131.11,46.16-78.62-367-98.6-491.73-48.1-215.75-24.57-228.67a49.17,49.17,0,0,1,17-5.79h.07c79.6-10,120.46,232.41,149.43,330.6,5.76,19.57,12.44,44,19.48,70.9C1267.8,1542.94,1305.33,1704.64,1305.33,1704.64Z"/><path class="cls-7" d="M1361.9,1754.33s34.87,35.25,56.45,138.18c0,0-1.66-102.93-28.22-162.7S1361.9,1754.33,1361.9,1754.33Z"/><path class="cls-8" d="M1565.8,1020.65c-1.13-10,126.68-319.13,168.89-346.68s173.37-45.88-125.12,579.33Z"/><g class="cls-9"><path class="cls-10" d="M1054.48,1143.87s18.82-30.58-3.45-113.44C1051,1030.43,1023.85,1019.2,1054.48,1143.87Z"/></g><rect class="cls-11" x="1212.49" y="641.73" width="619.13" height="1126.75" rx="72.24"/><rect class="cls-1" x="987" y="923.86" width="1070.1" height="562.49" rx="23.25" transform="translate(2727.16 -316.95) rotate(90)"/><rect class="cls-12" x="1334.62" y="1315.1" width="374.36" height="33.55" rx="7.98"/><rect class="cls-12" x="1334.62" y="1246.38" width="374.36" height="33.55" rx="7.98"/><rect class="cls-12" x="1347.94" y="814.8" width="373.31" height="373.31" rx="15.38"/><rect class="cls-12" x="1334.62" y="1396.61" width="374.86" height="171.59" rx="40.82"/><path class="cls-1" d="M1453.87,1489v24h-7.44v-63.47h17.44q10.19,0,15.78,5t5.6,14a19.21,19.21,0,0,1-6.22,14.78q-6.22,5.76-16.8,5.76Zm0-32.76v26h7.79q7.69,0,11.75-3.52c2.7-2.34,4-5.66,4-9.93q0-12.58-14.87-12.58Z"/><path class="cls-1" d="M1550.86,1513h-8.23l-6.73-17.79H1509l-6.33,17.79h-8.28l24.35-63.47h7.7Zm-17.39-24.48-10-27a25.83,25.83,0,0,1-1-4.25h-.17a24.62,24.62,0,0,1-1,4.25l-9.87,27Z"/><path class="cls-1" d="M1606,1449.52l-20.94,40V1513h-7.44v-23.28l-20.4-40.19h8.45l14.21,28.68c.18.35.7,1.65,1.55,3.89h.13a23.51,23.51,0,0,1,1.69-3.89l14.87-28.68Z"/><path class="cls-8" d="M1847.54,1437.42c-71.52,51.86-139.19,101.2-158.84,69.26a39.19,39.19,0,0,1-5.85-20.92c.07-35.86,44.3-81,101.14-123.65,50.93-38.12,81.88-64.15,107.78-60.43,9,1.33,17.4,6.18,25.83,15.47C1936.33,1337.74,1922.25,1383.3,1847.54,1437.42Z"/><path class="cls-7" d="M1891.77,1301.68c-21.65,24.64-40.58,36.86-64.15,58.7-42,38.72-71.32,60.7-111.5,96.76-14,12.55-24.64,22.11-33.27,28.62.07-35.86,44.3-81,101.14-123.65C1834.92,1324,1865.87,1298,1891.77,1301.68Z"/><path class="cls-8" d="M1896.8,1194.06c19.93,16,31.88,41.78,1.22,82.72-28.1,37.52-49.76,49.9-78.41,76.34-41.95,38.73-71.3,60.74-111.53,96.81-42.24,37.89-53.9,48.34-72.67,30.17-34.73-33.61,24.18-111.84,96.84-181.4C1813.48,1221,1847.87,1154.92,1896.8,1194.06Z"/><g class="cls-9"><path class="cls-10" d="M1692.08,1431c-9.68-11.55-26.86-6.56-46.13,14.11s-13.75,32.54-3,40.9C1659.63,1499,1713.86,1456.93,1692.08,1431Z"/></g><g class="cls-9"><path class="cls-10" d="M1746.8,1480.23c9,11.31-9.86,34-37.92,36.54-11.71,1.09-17.15-18.37-.55-28.33S1737.94,1469.16,1746.8,1480.23Z"/></g><g class="cls-2"><path class="cls-3" d="M2113.9,1286.54c3.17,64,123.57,78.75,189.55,68.74,86.6-13.14,80.34-169.53-18.33-184.58S2111.38,1235.78,2113.9,1286.54Z"/></g><path class="cls-3" d="M1350,2268.3c-38.54,9.09-83.36,13.85-118.11,18.35-6.17-.14-12.45-.14-18.82.08-108.35,3.92-150.12-10.44-129.23-48.89s2.61-32.05-71.8-38.57-161.88-37.9-161.87-79.64c0-52.41,69.21-38.89,67.9-84.58s-50.94-60.31-112.15-56.64-125.46-24.56-112.4-63.73,60.37-35,68.2-61.1-21.22-42-55.15-66.92-55.17-58.84-36.55-90.53c15.67-26.66,107,17.52,220.62,90.53s54.82,6.63,138.36,10.12,146.22,205.37,167.1,190,61.39-55.73,99.87,52.44C1343.8,2173.63,1362.2,2239.21,1350,2268.3Z"/><path class="cls-13" d="M2582.48,2438.61c-1.36,36.6-2.74,155.19-87.7,202.59s-160.73-33.9-173.35-61.1-74.36-105.77-74.36-105.77c-28.91-35.73-77.71-49.17-159-55.37s-158.81-66-212.81-119.78-127.92-97.33-172.43-112.83c-26.4-9.21-48-16.73-57.23-30.89,0,0,0,0-.05,0-5.66-8.74-6.61-20-1.07-35.79v0c.62-1.74,1.3-3.54,2.08-5.39,5.69-13.65,43.74-24.94,94-11.69s89.65,47.63,161.42,62.66,57.12-4.34,31.34-51.11-158.9-231.48-176.92-253.42-46.67-44.07-101.34-79.52-99-104.71-93.16-133.7a28.47,28.47,0,0,1,7.47-14.81c7.83-8,19.21-9.09,25.3-9a36.16,36.16,0,0,1,4.22.26c-8.79-13.08-10.7-28.61-7.3-40.37a30.25,30.25,0,0,1,4.56-9.6c5.38-7.37,14.08-10.88,25.17-7,8.23,2.88,19,7,30.22,11.54,12.15,4.85,24.76,10.1,35.09,14.46l.1,0c13.22,5.54,22.69,9.64,22.69,9.64a163,163,0,0,1,21.51.66c63.41,5.55,167.48,40.07,209.44,54.71a.1.1,0,0,1,.07,0c4.37,1.53,8.07,2.85,11,3.87,0,0,0,0,.07,0,4.68,1.68,7.29,2.64,7.29,2.64a177.37,177.37,0,0,1,20.8.29h0c65.2,4.79,116.48,44.14,133.33,58.68l0,0c3.89,3.3,5.93,5.32,5.93,5.32s5.84,2.75,15.2,8.05a0,0,0,0,0,0,0c18.91,10.81,52.14,32.21,80.49,63.07,42.38,46.14,134.62,137.45,192.67,269.6S2583.83,2402,2582.48,2438.61Z"/><path class="cls-14" d="M1947.44,1917.2c-3.93-1-144.09-146.09-151.51-156.52s-112.81-59.44-197-136.8c-8.79-13.08-10.7-28.61-7.3-40.37.15,1.53,4.39,34.91,68.3,76.32,65.43,42.4,117.65,70.59,139.75,89S1951.36,1918.22,1947.44,1917.2Z"/><path class="cls-14" d="M2035.41,1852c-1.66,4.76-33-32.17-64.6-65.3s-65.77-80.31-114.51-105.12c-48-24.45-165.85-86.68-169.51-88.6,13.22,5.54,22.69,9.64,22.69,9.64a163,163,0,0,1,21.51.66c47.32,26.14,158.85,79.43,165.66,85.22C1905.19,1695.73,2037.07,1847.2,2035.41,1852Z"/><path class="cls-14" d="M2113.4,1815.33c.77,6-44.63-45.86-95.61-100-31.8-33.79-54-47.74-66.24-53.48,4.68,1.68,7.29,2.64,7.29,2.64a177.37,177.37,0,0,1,20.8.29h0C2016.35,1696.25,2112.7,1809.93,2113.4,1815.33Z"/><path class="cls-14" d="M2165.92,1781.22c-2.48-1.91-51.36-56-52.9-57.7,3.89,3.3,5.93,5.32,5.93,5.32s5.84,2.75,15.2,8.05a0,0,0,0,0,0,0C2148.32,1756.15,2167.54,1782.47,2165.92,1781.22Z"/><path class="cls-10" d="M1611,1680.56c-12.39,3.88-56-27.68-41.58-47.93,7.83-8,19.21-9.09,25.3-9C1641.69,1662.49,1623.42,1676.69,1611,1680.56Z"/><path class="cls-10" d="M1641.46,1610.6c-9.64,3.13-37.32-17.41-45.25-36.69,5.38-7.37,14.08-10.88,25.17-7,8.23,2.88,19,7,30.22,11.54C1663.82,1596.37,1650.59,1607.65,1641.46,1610.6Z"/><path class="cls-10" d="M1708.87,2144.59c1.2,21.09-6.58,42.86-51.53,18.47a78.84,78.84,0,0,1-11.69-7.6s0,0-.05,0c-5.66-8.74-6.61-20-1.07-35.79v0a33.16,33.16,0,0,1,10.81-5.68C1671.34,2109.61,1707.67,2123.48,1708.87,2144.59Z"/><path class="cls-5" d="M1420.2,524.36V833.78a29.74,29.74,0,0,1-29.73,29.74H757.81a29.73,29.73,0,0,1-29.74-29.74V524.36a29.73,29.73,0,0,1,29.74-29.74h632.66A29.74,29.74,0,0,1,1420.2,524.36Z"/><rect class="cls-11" x="728.07" y="726.68" width="692.13" height="93.48"/><rect class="cls-15" x="788.65" y="671.69" width="570.96" height="30.22" rx="7.19"/><rect class="cls-15" x="992.61" y="608.42" width="367" height="30.22" rx="7.19"/><rect class="cls-15" x="992.61" y="547.99" width="367" height="30.22" rx="7.19"/><rect class="cls-15" x="793.05" y="547.99" width="165.25" height="90.65" rx="13.25"/><g class="cls-16"><polygon class="cls-1" points="993.88 726.68 926.14 820.16 885.72 820.16 953.45 726.68 993.88 726.68"/></g><g class="cls-16"><polygon class="cls-1" points="1366.64 726.68 1298.89 820.16 1258.5 820.16 1326.22 726.68 1366.64 726.68"/></g><g class="cls-16"><polygon class="cls-1" points="1290.34 726.68 1222.6 820.16 1129.33 820.16 1197.05 726.68 1290.34 726.68"/></g><path class="cls-1" d="M1326.3,2285.42c-54.25-106.77-195.59-231.11-304.6-316.61-118.23-92.73-225-161-226-161.71l2.09-3.28c1.07.67,108,69.06,226.32,161.9,109.33,85.76,251.12,210.52,305.69,317.93Z"/><path class="cls-1" d="M962.43,2139.06l-1.53-3.58c1.38-.59,139.69-58.63,233.68-21.71l-1.42,3.62C1100.66,2081.06,963.8,2138.48,962.43,2139.06Z"/><path class="cls-1" d="M1076.16,2167.43l-1-3.77c5-1.25,122.62-30.21,167.76.27l-2.18,3.23C1197.09,2137.64,1077.36,2167.13,1076.16,2167.43Z"/><path class="cls-1" d="M1059.28,1998.65c-34.46-64-24.58-140.21-24.47-141l3.86.52c-.11.75-9.81,75.75,24,138.6Z"/><circle class="cls-3" cx="514.33" cy="1246.38" r="17.62" transform="translate(-433.6 287.51) rotate(-22.25)"/><circle class="cls-5" cx="2066.13" cy="1343.2" r="11.01"/><circle class="cls-3" cx="2024.62" cy="1516.8" r="5.78"/><path class="cls-12" d="M618.82,2030.33a5.78,5.78,0,1,1-5.78-5.78A5.77,5.77,0,0,1,618.82,2030.33Z"/><circle class="cls-5" cx="2072.43" cy="786.02" r="93.01"/><circle class="cls-15" cx="2059.83" cy="773.42" r="93.01"/><path class="cls-1" d="M2059.83,856a82.56,82.56,0,1,1,82.56-82.56A82.65,82.65,0,0,1,2059.83,856Zm0-161.22a78.66,78.66,0,1,0,78.66,78.66A78.75,78.75,0,0,0,2059.83,694.76Z"/><path class="cls-1" d="M2062.74,817.8v9.57a3.26,3.26,0,0,1-3.26,3.26h0a3.26,3.26,0,0,1-3.26-3.26v-8.94a.92.92,0,0,0-.91-.91q-10.86-.15-18.32-4a4.6,4.6,0,0,1-2.46-4.1h0a4.61,4.61,0,0,1,6.52-4.2c1.06.47,2.2.91,3.41,1.33a37.49,37.49,0,0,0,10.82,2.15.93.93,0,0,0,.94-.93V777.22a.92.92,0,0,0-.52-.82q-13.35-6.49-17.35-12a20.7,20.7,0,0,1-3.58-8.18,23.85,23.85,0,0,1,8-23,25.71,25.71,0,0,1,12.65-5.63.92.92,0,0,0,.78-.9v-7.25a3.26,3.26,0,0,1,3.26-3.26h0a3.26,3.26,0,0,1,3.26,3.26v6.9a.92.92,0,0,0,.89.91q8.4.33,13.09,2a4.59,4.59,0,0,1,3,4.34h0a4.61,4.61,0,0,1-6.15,4.37,33.58,33.58,0,0,0-9.87-1.94.93.93,0,0,0-1,.92v31.56a.92.92,0,0,0,.52.83q12.61,6.07,17.32,11.75a20.19,20.19,0,0,1,4.79,13.2,20.41,20.41,0,0,1-6,14.95q-5.76,5.84-15.88,7.62A.91.91,0,0,0,2062.74,817.8ZM2056.22,764V737.56a.91.91,0,0,0-1.14-.89,13.89,13.89,0,0,0-7.2,4.4,13,13,0,0,0-3.07,8.75,14.61,14.61,0,0,0,2.51,8.84,24.65,24.65,0,0,0,7.53,6.18A.92.92,0,0,0,2056.22,764Zm6.52,17.45v25.59a.92.92,0,0,0,1.14.9q10.95-2.87,11-12.77,0-8.15-10.73-14.51A.91.91,0,0,0,2062.74,781.49Z"/><circle class="cls-5" cx="2238.95" cy="1006.02" r="67.4"/><circle class="cls-15" cx="2229.83" cy="996.89" r="67.4"/><path class="cls-1" d="M2229.83,1057.26a60.37,60.37,0,1,1,60.36-60.37A60.44,60.44,0,0,1,2229.83,1057.26Zm0-116.84a56.47,56.47,0,1,0,56.46,56.47A56.55,56.55,0,0,0,2229.83,940.42Z"/><path class="cls-1" d="M2231.93,1029.05V1036a2.36,2.36,0,0,1-2.36,2.36h0a2.35,2.35,0,0,1-2.36-2.36v-6.48a.67.67,0,0,0-.66-.66,29.86,29.86,0,0,1-13.28-2.87,3.33,3.33,0,0,1-1.79-3h0a3.35,3.35,0,0,1,4.73-3c.77.35,1.6.67,2.48,1a27.06,27.06,0,0,0,7.83,1.55.66.66,0,0,0,.69-.67V999.65a.68.68,0,0,0-.38-.6q-9.67-4.71-12.57-8.7a15.07,15.07,0,0,1-2.6-5.93,17.29,17.29,0,0,1,5.82-16.64,18.53,18.53,0,0,1,9.16-4.08.67.67,0,0,0,.57-.65V957.8a2.36,2.36,0,0,1,2.36-2.37h0a2.37,2.37,0,0,1,2.36,2.37v5a.66.66,0,0,0,.65.66,33.13,33.13,0,0,1,9.48,1.46,3.34,3.34,0,0,1,2.18,3.15h0a3.33,3.33,0,0,1-4.45,3.17,24.07,24.07,0,0,0-7.15-1.41.68.68,0,0,0-.71.67v22.87a.66.66,0,0,0,.38.6q9.15,4.41,12.55,8.52a15.33,15.33,0,0,1-.87,20.4q-4.17,4.23-11.51,5.52A.67.67,0,0,0,2231.93,1029.05Zm-4.72-39V970.91a.67.67,0,0,0-.83-.65,10,10,0,0,0-5.22,3.19,9.45,9.45,0,0,0-2.22,6.34,10.61,10.61,0,0,0,1.81,6.4,17.91,17.91,0,0,0,5.46,4.48A.67.67,0,0,0,2227.21,990.09Zm4.72,12.65v18.55a.67.67,0,0,0,.83.65q7.93-2.09,7.94-9.26,0-5.89-7.77-10.51A.66.66,0,0,0,2231.93,1002.74Z"/><circle class="cls-5" cx="1610.55" cy="2383.17" r="67.4"/><circle class="cls-15" cx="1601.42" cy="2374.05" r="67.4"/><path class="cls-1" d="M1601.42,2434.41a60.37,60.37,0,1,1,60.37-60.36A60.43,60.43,0,0,1,1601.42,2434.41Zm0-116.83a56.47,56.47,0,1,0,56.47,56.47A56.53,56.53,0,0,0,1601.42,2317.58Z"/><path class="cls-1" d="M1603.53,2406.2v6.94a2.37,2.37,0,0,1-2.36,2.37h0a2.37,2.37,0,0,1-2.37-2.37v-6.48a.65.65,0,0,0-.66-.65,30,30,0,0,1-13.27-2.88,3.33,3.33,0,0,1-1.79-3h0a3.35,3.35,0,0,1,4.73-3c.77.34,1.6.66,2.47,1a26.89,26.89,0,0,0,7.84,1.56.67.67,0,0,0,.68-.67V2376.8a.67.67,0,0,0-.38-.6q-9.68-4.71-12.57-8.7a15,15,0,0,1-2.59-5.93,17.28,17.28,0,0,1,5.81-16.64,18.75,18.75,0,0,1,9.17-4.08.66.66,0,0,0,.56-.65V2335a2.36,2.36,0,0,1,2.37-2.36h0a2.36,2.36,0,0,1,2.36,2.36v5a.66.66,0,0,0,.64.66,33.15,33.15,0,0,1,9.49,1.47,3.32,3.32,0,0,1,2.18,3.14h0a3.33,3.33,0,0,1-4.45,3.17,24.4,24.4,0,0,0-7.16-1.4.66.66,0,0,0-.7.67v22.87a.69.69,0,0,0,.38.6q9.13,4.4,12.55,8.51a14.65,14.65,0,0,1,3.47,9.57,14.83,14.83,0,0,1-4.34,10.84q-4.18,4.22-11.51,5.51A.66.66,0,0,0,1603.53,2406.2Zm-4.73-38.95v-19.19a.66.66,0,0,0-.82-.65,10.09,10.09,0,0,0-5.22,3.19,9.47,9.47,0,0,0-2.23,6.34,10.66,10.66,0,0,0,1.82,6.41,18.06,18.06,0,0,0,5.46,4.48A.66.66,0,0,0,1598.8,2367.25Zm4.73,12.65v18.54a.67.67,0,0,0,.82.65q8-2.07,8-9.26,0-5.89-7.77-10.51A.67.67,0,0,0,1603.53,2379.9Z"/><g class="cls-17"><polygon class="cls-1" points="1625.56 641.73 1212.49 1243.55 1212.49 983.25 1446.89 641.73 1625.56 641.73"/></g><g class="cls-17"><path class="cls-1" d="M1831.62,784.29v260.28l-496.87,723.91h-50a72.22,72.22,0,0,1-72.23-72.24v-9.91Z"/></g><path class="cls-8" d="M1192.92,1263.49s70.14,185.13,112.6,253.33c51.58,82.82,111.72,370.49,111.72,370.49l-202.31-91.6-40.71-44.91-21.62-415.18Z"/><path class="cls-8" d="M1925.07,955.05c28.77,39.3,31,75.8-54.6,152.7-119.53,107.4-142.52,175.73-197.86,165.77s-29-88.25,42.91-165.73c43.77-47.13,78.59-96.29,124-149.41C1862.4,931.55,1906.7,930,1925.07,955.05Z"/><g class="cls-9"><path class="cls-10" d="M1732.73,1194.74c-9.54-11.53-44-21.58-76.37,28.23s19.43,60.17,38.18,45.22S1752.65,1218.82,1732.73,1194.74Z"/></g><g class="cls-2"><path class="cls-3" d="M1924.65,414.48a15.93,15.93,0,0,0-15.93,15.93V596a3.87,3.87,0,0,0,6.17,3.12l55.5-40.85a22.2,22.2,0,0,1,13.12-4.3h75.12A15.94,15.94,0,0,0,2074.56,538V430.41a15.93,15.93,0,0,0-15.93-15.93Z"/></g><circle class="cls-3" cx="1961.66" cy="512.61" r="9.71" transform="translate(-3.89 15.11) rotate(-0.44)"/><path class="cls-3" d="M1949.3,484.22a2.78,2.78,0,0,1,1.41-4.7,37.55,37.55,0,0,1,44.2,43.52,2.77,2.77,0,1,1-5.46-1A32,32,0,0,0,1951.79,485,2.79,2.79,0,0,1,1949.3,484.22Z"/><path class="cls-3" d="M2011.18,524.37a2.78,2.78,0,0,1-.82-2.28A52.7,52.7,0,0,0,1951.43,464a2.78,2.78,0,1,1-.68-5.51,58.27,58.27,0,0,1,65.13,64.16,2.79,2.79,0,0,1-3.06,2.46A2.75,2.75,0,0,1,2011.18,524.37Z"/><path class="cls-3" d="M1949,444.3a2.73,2.73,0,0,1-.81-1.72,2.76,2.76,0,0,1,2.5-3,77.14,77.14,0,0,1,84.19,82.9,2.77,2.77,0,1,1-5.53-.44,71.61,71.61,0,0,0-78.14-76.94A2.76,2.76,0,0,1,1949,444.3Z"/><path class="cls-3" d="M1725.5,414.55a90,90,0,0,0-88.84-89.89c-.24-.16-1,0-1,0a12.35,12.35,0,0,0-2.47.06,89.88,89.88,0,0,0,0,179.7,23.69,23.69,0,0,0,3.49,0A90,90,0,0,0,1725.5,414.55Zm-3.72-1.84h-37.6a108.79,108.79,0,0,0-42.13-84.13A86.33,86.33,0,0,1,1721.78,412.71Zm-88,3.68v83.92a105.13,105.13,0,0,1-44.38-83.92Zm-44.38-3.68a105.13,105.13,0,0,1,44.38-83.92v83.92Zm48.06,3.68h43.07a105.1,105.1,0,0,1-43.07,83Zm0-3.68v-83a105.09,105.09,0,0,1,43.07,83Zm-9.73-84a108.72,108.72,0,0,0-42,84h-36.3A86.34,86.34,0,0,1,1627.7,328.69Zm-78.3,87.7h36.3a108.72,108.72,0,0,0,42,84A86.34,86.34,0,0,1,1549.4,416.39Zm92.65,84.13a108.8,108.8,0,0,0,42.13-84.13h37.6A86.33,86.33,0,0,1,1642.05,500.52Z"/><path class="cls-3" d="M1635.19,506a20.39,20.39,0,0,1-2.14-.08,91.38,91.38,0,0,1-.14-182.69,10.56,10.56,0,0,1,2.64-.08,3.39,3.39,0,0,1,1.4,0c49.68.73,90,41.67,90,91.38s-40.48,90.76-90.25,91.39C1636.41,506,1635.82,506,1635.19,506Zm.06-3c.53,0,1,0,1.23,0h.17c48.16-.57,87.35-40.22,87.35-88.39s-39.19-87.82-87.35-88.39h-.46l-.1-.07-.19,0-.27,0-.38,0v88.09h-47.4l0-1.53a107,107,0,0,1,45-85.11l2-1.46h-1.17l-.1.08h-.45a88.38,88.38,0,0,0,0,176.7l.23,0c.2,0,.84.05,1.49.05l-2-1.45a107,107,0,0,1-45-85.11l0-1.53h47.4Zm-44.34-85.1a104,104,0,0,0,41.34,79.47V417.89Zm0-6.68h41.34V331.74A104.06,104.06,0,0,0,1590.91,411.21Zm46.28,91.17,3.94-3.05a106.77,106.77,0,0,0,41.55-83l0-1.47h40.6l0,1.53A87.83,87.83,0,0,1,1642.16,502Zm48.46-84.49a109.67,109.67,0,0,1-38.74,80.61,84.84,84.84,0,0,0,73.32-80.61Zm-53,84.48-5.1-.47a87.61,87.61,0,0,1-79.66-85.48l0-1.53h39.3l0,1.47a106.72,106.72,0,0,0,41.42,82.86ZM1551,417.89a84.58,84.58,0,0,0,71.78,80.4,109.67,109.67,0,0,1-38.5-80.4Zm85,84.46V414.89H1682l0,1.53a107.2,107.2,0,0,1-43.68,84.18Zm3-84.46v78.49a104.26,104.26,0,0,0,40-78.49Zm84.38-3.68h-40.6l0-1.47a106.77,106.77,0,0,0-41.55-83l-3.94-3,5,.37a87.83,87.83,0,0,1,81.12,85.59Zm-37.66-3h34.58a84.84,84.84,0,0,0-73.32-80.61A109.67,109.67,0,0,1,1685.65,411.21Zm-3.62,3h-46.1V326.75l2.39,1.75A107.2,107.2,0,0,1,1682,412.68Zm-43.1-3h40a104.24,104.24,0,0,0-40-78.49Zm-51.76,3h-39.3l0-1.53a87.61,87.61,0,0,1,79.66-85.48l5.1-.47-4,3.15a106.75,106.75,0,0,0-41.42,82.86Zm-36.22-3h33.28a109.69,109.69,0,0,1,38.5-80.4A84.58,84.58,0,0,0,1551,411.21Z"/><path class="cls-3" d="M1586.58,520.79a1.81,1.81,0,0,1-.78-.18,117.2,117.2,0,0,1,.24-212.27,1.84,1.84,0,1,1,1.56,3.33,113.52,113.52,0,0,0-7.92,201.63l-9.1-11.33a1.84,1.84,0,0,1,2.86-2.3L1588,517.8a1.84,1.84,0,0,1-1.44,3Z"/><path class="cls-3" d="M1586.58,522.29a3.31,3.31,0,0,1-1.42-.32,118.7,118.7,0,0,1,.25-215,3.34,3.34,0,1,1,2.83,6A112,112,0,0,0,1573,507.4l-3.61-4.49a3.34,3.34,0,0,1,5.2-4.18l14.57,18.13a3.34,3.34,0,0,1-2.6,5.43Zm.24-212.62-.14,0a115.7,115.7,0,0,0-.24,209.56.36.36,0,0,0,.41-.1.33.33,0,0,0,0-.42l-14.57-18.13a.35.35,0,0,0-.49-.05.33.33,0,0,0,0,.47l14,17.46-6.84-3.88a115,115,0,0,1,8-204.3.34.34,0,0,0,.16-.45A.34.34,0,0,0,1586.82,309.67Z"/><path class="cls-3" d="M1586.58,520.79a1.55,1.55,0,0,1-.37,0l-24.18-5a1.84,1.84,0,0,1,.75-3.61l24.18,5a1.84,1.84,0,0,1-.38,3.64Z"/><path class="cls-3" d="M1586.58,522.29a3.21,3.21,0,0,1-.68-.07l-24.18-5.05a3.35,3.35,0,0,1-2.59-3.95,3.34,3.34,0,0,1,1.44-2.11,3.29,3.29,0,0,1,2.52-.47l24.17,5a3.33,3.33,0,0,1,2.59,4A3.35,3.35,0,0,1,1586.58,522.29Zm-24.18-8.73a.3.3,0,0,0-.18.06.29.29,0,0,0-.15.21.33.33,0,0,0,0,.26.36.36,0,0,0,.21.15l24.25,5a.33.33,0,0,0,.33-.27.34.34,0,0,0,0-.26.34.34,0,0,0-.22-.14l-24.18-5Z"/><path class="cls-3" d="M1683.8,520.79a1.84,1.84,0,0,1-.78-3.51,113.52,113.52,0,0,0,7.92-201.63l9.11,11.33a1.84,1.84,0,0,1-2.87,2.31l-14.57-18.13a1.84,1.84,0,0,1,2.21-2.82,117.21,117.21,0,0,1-.24,212.28A2,2,0,0,1,1683.8,520.79Z"/><path class="cls-3" d="M1683.8,522.29a3.34,3.34,0,0,1-3.14-4.48,3.32,3.32,0,0,1,1.73-1.89,112,112,0,0,0,15.22-194.37l3.6,4.49a3.34,3.34,0,1,1-5.2,4.19l-14.57-18.13a3.34,3.34,0,0,1,4-5.12,118.7,118.7,0,0,1-.25,215A3.27,3.27,0,0,1,1683.8,522.29Zm1-211.83,6.83,3.88a115,115,0,0,1-8,204.3.32.32,0,0,0-.18.19.34.34,0,0,0,0,.26.33.33,0,0,0,.45.17,115.71,115.71,0,0,0,.25-209.56.34.34,0,0,0-.42.1.35.35,0,0,0,0,.42l14.57,18.13a.34.34,0,0,0,.53-.43Z"/><path class="cls-3" d="M1708.22,316.89a1.69,1.69,0,0,1-.38,0l-24.17-5a1.84,1.84,0,1,1,.75-3.61l24.18,5.05a1.84,1.84,0,0,1-.38,3.64Z"/><path class="cls-3" d="M1708.22,318.39a3.21,3.21,0,0,1-.68-.07l-24.18-5.05a3.34,3.34,0,0,1-2.59-3.95,3.33,3.33,0,0,1,4-2.58l24.17,5a3.34,3.34,0,0,1-.68,6.61ZM1684,309.67a.36.36,0,0,0-.19.05.31.31,0,0,0-.14.22.34.34,0,0,0,.26.4l24.25,5.05a.33.33,0,0,0,.33-.27.33.33,0,0,0-.26-.4l-24.18-5.05Z"/><path class="cls-1" d="M1609.27,1031.16H1447.36a2.06,2.06,0,0,1-2-1.55L1419,925.88a2,2,0,0,1,.37-1.77,2.07,2.07,0,0,1,1.62-.8h205.13l7.17-40a2.06,2.06,0,1,1,4,.72l-7.47,41.69s0,0,0,.06l-18.59,103.7A2,2,0,0,1,1609.27,1031.16ZM1449,1027.05h158.58l17.86-99.62H1423.66Z"/><circle class="cls-1" cx="1644.39" cy="883.66" r="10.98"/><path class="cls-1" d="M1609.27,1107H1478.64a1.65,1.65,0,1,1,0-3.29h129v-74.64a1.65,1.65,0,1,1,3.29,0v76.29A1.63,1.63,0,0,1,1609.27,1107Z"/><circle class="cls-1" cx="1485.09" cy="1120.76" r="9.47" transform="translate(53.1 2308.63) rotate(-76.72)"/><path class="cls-1" d="M1488.79,1120.76a3.71,3.71,0,1,1-3.7-3.7A3.7,3.7,0,0,1,1488.79,1120.76Z"/><circle class="cls-1" cx="1600.98" cy="1120.76" r="9.47" transform="translate(142.37 2421.42) rotate(-76.72)"/><path class="cls-1" d="M1604.69,1120.76a3.71,3.71,0,1,1-3.71-3.7A3.71,3.71,0,0,1,1604.69,1120.76Z"/><path class="cls-1" d="M1526.53,1030.75a1.65,1.65,0,0,1-1.65-1.64V925.37a1.65,1.65,0,0,1,3.29,0v103.74A1.64,1.64,0,0,1,1526.53,1030.75Z"/><path class="cls-1" d="M1553.82,1030.75h-.15a1.63,1.63,0,0,1-1.49-1.78l9.46-103.74a1.65,1.65,0,0,1,3.28.3l-9.46,103.73A1.65,1.65,0,0,1,1553.82,1030.75Z"/><path class="cls-1" d="M1583.88,1030.75a1,1,0,0,1-.24,0,1.65,1.65,0,0,1-1.39-1.87l15.46-103.73a1.64,1.64,0,1,1,3.25.49l-15.45,103.73A1.65,1.65,0,0,1,1583.88,1030.75Z"/><path class="cls-1" d="M1499.75,1030.71a1.65,1.65,0,0,1-1.64-1.49l-9.47-103.74a1.65,1.65,0,0,1,3.29-.29l9.46,103.73a1.65,1.65,0,0,1-1.49,1.79Z"/><path class="cls-1" d="M1469.68,1030.71a1.63,1.63,0,0,1-1.62-1.4l-15.45-103.73a1.64,1.64,0,0,1,3.25-.49l15.46,103.73a1.66,1.66,0,0,1-1.39,1.88Z"/></g></g></svg>