<svg xmlns="http://www.w3.org/2000/svg" xmlns:xlink="http://www.w3.org/1999/xlink" width="2986" height="2262.27" viewBox="0 0 2986 2262.27"><defs><style>.cls-1{isolation:isolate;}.cls-2,.cls-20{fill:#fff;}.cls-3{fill:#f6f3fe;}.cls-4{opacity:0.56;mix-blend-mode:multiply;fill:url(#linear-gradient);}.cls-5{fill:#1d1c2c;}.cls-6{fill:#303b71;}.cls-7{fill:#ff9597;}.cls-8{fill:#e5cdfd;}.cls-9{fill:#f6a04b;}.cls-10{fill:#ddf4f5;}.cls-11{fill:#00cb9b;}.cls-12{fill:#1d254c;}.cls-13{fill:#f6912c;}.cls-14{fill:url(#linear-gradient-2);}.cls-15{fill:url(#linear-gradient-3);}.cls-16{fill:#e3811f;}.cls-17{fill:url(#linear-gradient-4);}.cls-18{fill:url(#linear-gradient-5);}.cls-19{fill:#f7c200;}.cls-20{opacity:0.1;}.cls-21{opacity:0.2;}.cls-22{fill:#f27e87;}.cls-23{fill:#faad83;}.cls-24{fill:#ffc800;}.cls-25{fill:url(#linear-gradient-6);}.cls-26{fill:#dfe0e5;}.cls-27{fill:#e6b400;}.cls-28{fill:#1f1c37;}.cls-29{fill:#633f33;}.cls-30{fill:#c2ebed;}.cls-31{fill:#5dd6e1;}.cls-32{fill:#e09b75;}.cls-33{fill:#00b88c;}</style><linearGradient id="linear-gradient" x1="278.42" y1="1239.06" x2="2707.58" y2="1239.06" gradientUnits="userSpaceOnUse"><stop offset="0" stop-color="#fff"/><stop offset="1" stop-color="#ecdbfd"/></linearGradient><linearGradient id="linear-gradient-2" x1="1375.91" y1="1495.38" x2="1453.08" y2="1495.38" gradientUnits="userSpaceOnUse"><stop offset="0" stop-color="#f7c200"/><stop offset="1" stop-color="#f6a04b"/></linearGradient><linearGradient id="linear-gradient-3" x1="1518.08" y1="1432.49" x2="1826.39" y2="1768.16" xlink:href="#linear-gradient-2"/><linearGradient id="linear-gradient-4" x1="1289.33" y1="1595.11" x2="1597.64" y2="1930.77" xlink:href="#linear-gradient-2"/><linearGradient id="linear-gradient-5" x1="1501.87" y1="1399.88" x2="1810.19" y2="1735.54" xlink:href="#linear-gradient-2"/><linearGradient id="linear-gradient-6" x1="800.39" y1="1623.06" x2="786.63" y2="2097.75" gradientTransform="translate(2409.59 -710.14) rotate(42.47)" xlink:href="#linear-gradient-2"/></defs><g class="cls-1"><g id="レイヤー_2" data-name="レイヤー 2"><g id="Layer_1" data-name="Layer 1"><rect class="cls-2" width="2986" height="2262.27"/><path class="cls-3" d="M423.2,2000.93c-69.45-111.74-272.27-338.06,244.73-658.18,483-299.08,174.92-641.08,730.68-858.33C2133.52,197.15,3041.51,781,2398.33,1996Z"/><path class="cls-4" d="M423.2,2000.93c-124.69-64.16-325.27-447.94,191.73-768,483-299.09,407.7-487,860.72-672.86,730-299.51,1659.17,221,1016,1435.94Z"/><path class="cls-5" d="M1727.36,883.87s-42.86,10.19-74.69-21.22,3.82-83.61,0-105.68-24.19-58.14-18.25-85.73,36.07-36.92,44.14-32.68,15.7-50.93,80.21-33.95,54.33,58.14,146.85,72.15S1939.15,793,1993.9,822.32,2036,932.68,1961.28,959,1727.36,883.87,1727.36,883.87Z"/><path class="cls-6" d="M1740.31,1182.6l-29.69,223.54L1822.43,1395l20.37-110.47,8.49,133.26L1971.83,1461s28.86-260.11-10.61-309.13S1740.31,1182.6,1740.31,1182.6Z"/><path class="cls-7" d="M453.85,1680.26l41.68-18.7a2.46,2.46,0,0,1,3.46,2.5l-4.65,45.44a2.46,2.46,0,0,1-3.89,1.75l-37-26.75A2.46,2.46,0,0,1,453.85,1680.26Z"/><path class="cls-8" d="M1294.46,250h-74.92a95.41,95.41,0,0,0-95.41,95.41v11.69a95,95,0,0,0,14.39,50.38l-53.38,70.32L1192.9,448.7a95.6,95.6,0,0,0,26.64,3.8h74.92a95.41,95.41,0,0,0,95.41-95.41V345.4A95.41,95.41,0,0,0,1294.46,250Z"/><path class="cls-2" d="M1259.58,433.33h-7.88V415.22q-17.25,0-29.12-7.19v-12a40.24,40.24,0,0,0,6.33,3.9,54,54,0,0,0,15.12,4.9,47.47,47.47,0,0,0,7.67.65v-48.1q-5.29-3-10.53-5.94a49.19,49.19,0,0,1-9.4-6.89,31.71,31.71,0,0,1-6.76-9.1,27.76,27.76,0,0,1-2.6-12.57,32,32,0,0,1,2.16-11.87,30.4,30.4,0,0,1,6.07-9.62,32.53,32.53,0,0,1,9.27-6.84A38.83,38.83,0,0,1,1251.7,291V275.26h7.88v15.43a67,67,0,0,1,13.35,1.47,43.48,43.48,0,0,1,9.71,3.29v11.36q-9.11-6.07-23.06-6.33V349.7a116.11,116.11,0,0,1,14.22,8.24,49.37,49.37,0,0,1,9.18,8,25.45,25.45,0,0,1,4.94,8.37,29.19,29.19,0,0,1,1.48,9.44,30.59,30.59,0,0,1-2,11.27,28.41,28.41,0,0,1-5.85,9.23,31.86,31.86,0,0,1-9.36,6.72,43.17,43.17,0,0,1-12.57,3.72Zm-7.88-132.5a22.32,22.32,0,0,0-13,7,20,20,0,0,0-4.8,13.69,26.63,26.63,0,0,0,.82,6.89,17.48,17.48,0,0,0,2.86,5.85,27.45,27.45,0,0,0,5.46,5.41,68.91,68.91,0,0,0,8.71,5.59Zm7.88,104.25q9.2-1.72,13.78-6.89a18.82,18.82,0,0,0,4.6-13,20.82,20.82,0,0,0-1-6.5,19.7,19.7,0,0,0-3.16-5.85,30.51,30.51,0,0,0-5.68-5.5,76.62,76.62,0,0,0-8.54-5.55Z"/><circle class="cls-9" cx="2477.16" cy="1394.99" r="13.26" transform="translate(-260.86 2160.2) rotate(-45)"/><circle class="cls-10" cx="2255.37" cy="341.03" r="13.26" transform="translate(41.17 889.05) rotate(-22.5)"/><path class="cls-11" d="M2308.22,962.45,2262,921.26l.41-2.21a3.87,3.87,0,0,1,2.57-2.88l58.77-19.42,1.71,1.47a3.89,3.89,0,0,1,1.21,3.67l-12.57,60.6-2.13.74A3.87,3.87,0,0,1,2308.22,962.45Zm-34.76-41.12,35,31.21,9.53-45.92Z"/><path class="cls-8" d="M1202.7,1488.9a55.32,55.32,0,1,1,55.33-55.32A55.38,55.38,0,0,1,1202.7,1488.9Zm0-93.17a37.85,37.85,0,1,0,37.86,37.85A37.89,37.89,0,0,0,1202.7,1395.73Z"/><path class="cls-11" d="M2426,1741.63c0,88.09-43.29,214.31-124.56,244.69-14.62,5.46-24.72,18.68-38,26h-943.2a165.91,165.91,0,0,1-6.09-26,171.47,171.47,0,0,1-1.88-25.29A168.12,168.12,0,0,1,1551.4,1808.7l308.75-197.1a198.84,198.84,0,0,1-38.9-118.46c0-110.34,89.44-199.8,199.8-199.8s199.8,89.46,199.8,199.8c0,2.79-.07,5.54-.17,8.29C2333.41,1523.28,2426,1622.5,2426,1741.63Z"/><rect class="cls-12" x="1866.21" y="1742.23" width="372.36" height="4.24" transform="matrix(0.4, -0.92, 0.92, 0.4, -362.75, 2936.87)"/><rect class="cls-12" x="2006.84" y="1619.06" width="4.24" height="161.62" transform="translate(-490.86 877.44) rotate(-22.02)"/><polygon class="cls-12" points="2077.97 1686.53 2078.86 1681.87 2180.51 1647.49 2180.89 1650.48 2077.97 1686.53"/><polygon class="cls-13" points="1415.5 1406.14 1405.56 1406.14 1418.13 1461.02 1415.5 1406.14"/><path class="cls-13" d="M2017.68,1495.85c.1-.09,1.28-1.11,3.37-2.7s5.17-3.85,9.22-6.45a139.69,139.69,0,0,1,15.19-8.51,106.76,106.76,0,0,1,21.73-7.82,71.38,71.38,0,0,1,28.53-1.17,57.86,57.86,0,0,1,15.29,5c1.22.61,2.45,1.24,3.62,2,.6.34,1.2.68,1.77,1.06l1.88,1.23,1.44,1,1.89,1.48c1.12.94,2.23,2,3.29,3a37.46,37.46,0,0,1,9.49,16,35.21,35.21,0,0,1,.06,18.94,36.61,36.61,0,0,1-9.3,16.17,32.37,32.37,0,0,1-16.53,9.07,30.45,30.45,0,0,1-9.51.39,33.53,33.53,0,0,1-8.88-2.38,44.94,44.94,0,0,1-14-9.73,44,44,0,0,1-9.25-13.61,40.83,40.83,0,0,1-3.34-15.59,46.3,46.3,0,0,1,8.92-27.53,62.19,62.19,0,0,1,18.67-16.94,83.69,83.69,0,0,1,19.21-8.35,107.91,107.91,0,0,1,15.64-3.35c4.38-.61,7.84-.84,10.19-1l3.61-.16-3.58.45c-2.33.33-5.75.84-10,1.79a104.68,104.68,0,0,0-15.07,4.5,81.08,81.08,0,0,0-17.77,9.45,57,57,0,0,0-15.89,16.86,39.22,39.22,0,0,0-5.8,23.84,33,33,0,0,0,11.64,22,32.27,32.27,0,0,0,11,6.35,18,18,0,0,0,20.14-5.92,21.49,21.49,0,0,0,4.51-10,18.62,18.62,0,0,0-1-10.08,19.72,19.72,0,0,0-5.85-7.86c-.65-.54-1.34-1.05-2.06-1.55l-.93-.59-1.46-.87-.09-.06c.05,0-.25-.16.09.07l-.15-.09-.31-.16-.62-.33c-.4-.23-.82-.42-1.24-.62-.82-.41-1.66-.75-2.49-1.09a37.48,37.48,0,0,0-10.16-2.42,49.69,49.69,0,0,0-19.67,2.49,84.7,84.7,0,0,0-16.41,7.45,116.33,116.33,0,0,0-11.9,7.95c-3.17,2.42-5.54,4.46-7.08,5.84s-2.22,2.08-2.12,2Z"/><path class="cls-13" d="M1463,1455.87s-30.39-37-47.52-49.73c0,0-50.28,55.26-19.89,152S1463,1455.87,1463,1455.87Z"/><path class="cls-14" d="M1453.08,1455.87s-30.39-37-47.52-49.73c0,0-50.28,55.26-19.89,152S1453.08,1455.87,1453.08,1455.87Z"/><path class="cls-15" d="M2074.12,1642.65A244.29,244.29,0,0,1,2048.57,1751C1995.24,1859.39,1864.24,1936,1711.1,1936q-5.14,0-10.24-.12a444.89,444.89,0,0,1-68.08-6.73q-16.24-2.88-31.89-6.93-9.21-2.35-18.16-5.1c-137.13-41.91-234.64-149-234.64-274.51,0-162,162.52-293.39,363-293.39,161.64,0,298.62,85.38,345.61,203.39q3.26,8.13,5.92,16.48a248.29,248.29,0,0,1,6.6,25.25A240.53,240.53,0,0,1,2074.12,1642.65Z"/><path class="cls-16" d="M1903.17,1434.86l-9.68,4.83c-53.84-25.55-110.42-37.35-177.35-37.35a435.77,435.77,0,0,0-144.4,24.15l-32.08-16.92c52.25-23.56,112.43-37,176.48-37C1787.8,1372.6,1850.42,1395.29,1903.17,1434.86Z"/><ellipse class="cls-13" cx="1562.53" cy="1689.92" rx="46.37" ry="37.22" transform="matrix(0.95, -0.32, 0.32, 0.95, -459.85, 591.15)"/><path class="cls-17" d="M1496.79,1984.4h0a36.76,36.76,0,0,1-24.13-43.11l36-156.34a52.34,52.34,0,0,1,67.65-37.87h0a52.34,52.34,0,0,1,31.15,71L1542,1964.55A36.76,36.76,0,0,1,1496.79,1984.4Z"/><path class="cls-18" d="M1963.28,1984.4h0a36.76,36.76,0,0,0,24.13-43.11l-36-156.34a52.36,52.36,0,0,0-67.66-37.87h0a52.34,52.34,0,0,0-31.15,71L1918,1964.55A36.76,36.76,0,0,0,1963.28,1984.4Z"/><path class="cls-13" d="M1595,1483.63s85,46.59,115.63,98.45c0,0,33.45-108.49-17.4-196.9C1693.22,1385.18,1619.44,1404.2,1595,1483.63Z"/><ellipse class="cls-13" cx="1369.22" cy="1679.14" rx="81.23" ry="65.2"/><path class="cls-19" d="M1429.32,1679.13c0,35.1-34.51,63.71-77.78,65.15-1.14,0-2.29.07-3.45.07q-3.22,0-6.41-.2a99.83,99.83,0,0,1-16.86-2.52,90.62,90.62,0,0,1-22-8.34,76.68,76.68,0,0,1-20.92-16.31,64.34,64.34,0,0,1-5.8-7.59,55,55,0,0,1-9.25-30.26c0-30.17,25.54-55.55,60.2-63a95.28,95.28,0,0,1,10.88-1.69,96.69,96.69,0,0,1,10.14-.51,99.91,99.91,0,0,1,19,1.79h0a92.82,92.82,0,0,1,22.49,7.34,80.65,80.65,0,0,1,13.73,8.26,74.45,74.45,0,0,1,6.83,5.73C1422.11,1648.42,1429.32,1663.1,1429.32,1679.13Z"/><ellipse class="cls-20" cx="1898.14" cy="1689.92" rx="105.86" ry="81.24" transform="translate(-376.34 556.13) rotate(-15.18)"/><ellipse class="cls-20" cx="1763.33" cy="1790.21" rx="42.51" ry="32.62" transform="translate(-407.31 524.32) rotate(-15.18)"/><g class="cls-21"><path class="cls-2" d="M1389.58,1623.07l-64.76,118.56a90.62,90.62,0,0,1-22-8.34l64.23-117.56h0A92.82,92.82,0,0,1,1389.58,1623.07Z"/><path class="cls-2" d="M1410.14,1637.06l-58.6,107.22c-1.14,0-2.29.07-3.45.07q-3.22,0-6.41-.2l61.63-112.82A74.45,74.45,0,0,1,1410.14,1637.06Z"/><path class="cls-2" d="M1281.92,1717l56-102.53a97.55,97.55,0,0,0-10.88,1.69l-51,93.25Z"/></g><circle class="cls-16" cx="1313.28" cy="1679.14" r="13.81"/><circle class="cls-16" cx="1375.91" cy="1679.14" r="13.81"/><path class="cls-16" d="M1521.85,1595.34a41.65,41.65,0,0,0-83.16.26.26.26,0,0,0,0,.15,2,2,0,0,0-.05.43.64.64,0,0,0,0,.28,2.89,2.89,0,0,0,5,1.63,2.33,2.33,0,0,0,.53-1,41.68,41.68,0,0,1,72.46.68,2.9,2.9,0,0,0,5.22-1,2.93,2.93,0,0,0,.08-.67A2.32,2.32,0,0,0,1521.85,1595.34Z"/><polygon class="cls-13" points="1710.62 1582.08 1702 1582.08 1696.62 1543.07 1709.12 1548.59 1710.62 1582.08"/><polygon class="cls-13" points="1693.22 1385.18 1684.6 1385.18 1680.18 1404.8 1693.22 1398.16 1693.22 1385.18"/><path class="cls-19" d="M1586.37,1483.63s85,46.59,115.63,98.45c0,0,33.45-108.49-17.4-196.9C1684.6,1385.18,1610.82,1404.2,1586.37,1483.63Z"/><path class="cls-7" d="M1740.31,964.08l-9.13,123.83a24,24,0,0,1-.34,2.7,26.63,26.63,0,0,1-13.27,18.6l-68.3,38-36.92-23.31s57.93-38.2,64.93-48.39,7-138.14,12.74-177.61,40.1-57.94,40.1-57.94l10.13,123.41Z"/><path class="cls-22" d="M1740.31,964.08l-9.13,123.83a24,24,0,0,1-.34,2.7l-1.37,4.86-14.66-132.12h25.44Z"/><path class="cls-7" d="M1961.22,1151.89c-1.91,8.91-73.85,41.38-113.32,48.38s-108.23-5.73-108.23-5.73-.63-21.64,8.92-96.13-18.47-92.31-29.93-114.59,3.19-139.42,11.46-143.88,42.66-21.64,42.66-21.64c75.75-18.46,144.32,1.58,148.77,9.22s-13.59,29.4-10.41,60.59c.1,1,.19,2.1.27,3.23,2.16,33.24-8.5,110.23-.49,145.32.73,3.16,1.71,6.58,2.92,10.19h0c2.47,7.39,5.86,15.59,9.68,24.07,5.93,13.14,13,26.93,19.3,39.37C1953.35,1130.9,1962.09,1147.8,1961.22,1151.89Z"/><path class="cls-22" d="M1942.83,1110.29c-30.74,11.91-80.56,31.81-83.47,36.9-4.24,7.4-39,37.53-39,37.53l-10.71-9.18,10.71-34.9,103.22-69.72C1929.46,1084.06,1936.48,1097.85,1942.83,1110.29Z"/><path class="cls-23" d="M1674.31,689.07c-.38,4.67-1.27,20.37-5.51,28.86s44.55,87.55,74,71c0,0,20.86,33.88,9.5,39.64,0,0,10.68,31.11,41.23,28.14s38.2-46,38.2-46-13.16-8.74-27.59-34.63-17-32.68-14.85-38.2,8.91-21.22,7.21-39-17.82-15.71-19.94-9.76-5.1,12.3-15.28,6.36-14.86-19.95-21-15.7-41.38,11-53.69,10.18S1674.55,686.22,1674.31,689.07Z"/><circle class="cls-9" cx="1712.7" cy="1232.74" r="120.39" transform="translate(-370.04 1572.12) rotate(-45)"/><circle class="cls-24" cx="1712.36" cy="1225" r="120.39" transform="translate(-364.66 1569.61) rotate(-45)"/><circle class="cls-25" cx="1712.36" cy="1225" r="89.43" transform="translate(-364.67 1569.61) rotate(-45)"/><path class="cls-9" d="M1801.7,1221.06c0,1.29.09,2.6.06,3.87a89.4,89.4,0,0,0-178.47,7.88c-.13-1.26-.22-2.57-.27-3.86a89.43,89.43,0,1,1,178.68-7.89Z"/><polygon class="cls-9" points="1677.73 1257.01 1678 1263.29 1685.7 1265.49 1680.82 1257.02 1677.73 1257.01"/><polygon class="cls-9" points="1744.06 1190.52 1743.8 1184.72 1737.72 1186.11 1740.6 1191.8 1744.06 1190.52"/><path class="cls-9" d="M1716.9,1221.51q19.33,3.1,26.54,10.33t7.78,20.2a34.65,34.65,0,0,1-7.69,23.91q-8.28,10.4-23.7,11.92l.35,7.84a4.14,4.14,0,0,1-4,4.32h0a4.14,4.14,0,0,1-4.32-4l-.34-7.69q-26.35-1.73-33.2-23a7.47,7.47,0,0,1,6.73-9.78h0a7.3,7.3,0,0,1,7.39,5.18q4,14.1,18.57,15.89l-1.91-43.18q-31.56-4.87-32.64-29.13-.6-13.68,7.49-22.39t22.4-10.67l-.34-7.76a4.14,4.14,0,0,1,4-4.32h0a4.14,4.14,0,0,1,4.31,4l.35,7.77q21.87.69,28.82,17.07a7.29,7.29,0,0,1-6.46,10h0a7.4,7.4,0,0,1-7.23-5q-3.43-9.35-14.62-10.39Zm-8.34-1.33-1.65-37.31q-16.17,3.59-15.46,19.65c.25,5.76,2,9.89,5.07,12.39A28.35,28.35,0,0,0,1708.56,1220.18Zm10.76,56.1q17.75-3,16.88-22.65-.36-8-4.18-12.19T1717.5,1235Z"/><path class="cls-24" d="M1716.65,1215.71q19.32,3.11,26.53,10.33t7.79,20.2a34.75,34.75,0,0,1-7.69,23.91q-8.29,10.39-23.7,11.92l.34,7.84a4.13,4.13,0,0,1-4,4.32h0a4.14,4.14,0,0,1-4.31-4l-.34-7.69q-26.35-1.74-33.21-23a7.47,7.47,0,0,1,6.73-9.78h0a7.32,7.32,0,0,1,7.4,5.18q4,14.1,18.56,15.89l-1.91-43.18q-31.56-4.87-32.63-29.13-.6-13.68,7.48-22.39t22.4-10.67l-.34-7.76a4.14,4.14,0,0,1,4-4.32h0a4.14,4.14,0,0,1,4.32,3.95l.34,7.77q21.87.69,28.83,17.07a7.29,7.29,0,0,1-6.46,10h0a7.42,7.42,0,0,1-7.24-5q-3.43-9.35-14.61-10.39Zm-8.35-1.33-1.64-37.31q-16.19,3.57-15.47,19.65.39,8.64,5.08,12.39A28.3,28.3,0,0,0,1708.3,1214.38Zm10.77,56.1q17.75-3,16.87-22.65c-.23-5.35-1.63-9.42-4.17-12.19s-7.39-4.94-14.53-6.48Z"/><path class="cls-23" d="M1631.62,1136s-2.29,8.84-1.45,13.57,5.1,41.11-1.27,42.81-19.1-17.4-23.34-34.8,6.79-33.74,6.79-33.74Z"/><path class="cls-23" d="M1841.74,1115.81l-12.94-4s-20.16,5.52-28.44,14-11,11.24-8.91,14,19.31-9.55,18-4.67-13.37,21-17.4,23.77-17.19,17.61-17.19,20.8,20.79,6.79,39.26-7.22,37.13-35.22,37.13-35.22Z"/><path class="cls-26" d="M2605.75,1999.3h0a13,13,0,0,1-13,13H367.85a13,13,0,0,1-13-13h0a13,13,0,0,1,13-13H2592.77A13,13,0,0,1,2605.75,1999.3Z"/><path class="cls-27" d="M909.75,846.74s42,3.8,99.56,62.85,73.41,68.42,76.56,67.62,142.22-77.76,142.22-77.76l21.48,35.87s-96.46,86.18-142.34,103.51-85.39-1.63-135.57-49.17S909.75,846.74,909.75,846.74Z"/><polygon class="cls-23" points="627.93 1859.4 611.14 1888.4 611.14 1902.73 644.03 1909.46 670.72 1872.94 627.93 1859.4"/><path class="cls-12" d="M925.8,1448.34s-31.11,117.58-115.6,247.56-145,196.53-145,196.53-44.61-24.36-45.69-28.69,84.21-203.1,116.71-302.75,54.84-320.68,54.84-320.68Z"/><path class="cls-28" d="M644,1909.46l-32.89-21.06s-29.79,21.91-27.62,31.12,22.75,22.2,29.25,33.58,20.58,30.33,43.32,32,33.59,2.59,26.55-8.78-30.34-18.3-33.59-38.58C646.57,1922.19,644,1909.46,644,1909.46Z"/><path class="cls-29" d="M995.61,633.85c16.86,17.77,11.92,46.57-21.66,57.41s-110.51,106-110.51,106-12-6.88-19.51-22.59-40.58-38.45-32.46-72.57,33-28.16,32.46-31.41-8.63-33.58,17.91-50.37,48.25-6,52,0S975.57,612.73,995.61,633.85Z"/><path class="cls-23" d="M974,763.83c-5.41,30.86-24.37,46.57-41.17,41.16a8.41,8.41,0,0,0-1.12-.29l-.09,0c-6.11-1.2-7.56,5-9.38,12.41-2.62,10.59-6,23.54-25,20.12-33.12-6-36.53-33.86-36.53-33.86s13.67-26.79,8.25-38.83S853.71,744.87,857,724.3s20.59-9.21,23.84,1.08,14.08,11.92,17.33-6.51-.54-26,7-27.62,46.57,7.59,68.78,0C974,691.25,979.37,733,974,763.83Z"/><polygon class="cls-23" points="1027.02 1894.83 1028.11 1939.6 1052.3 1951.88 1075.77 1939.6 1071.8 1876.78 1027.02 1894.83"/><path class="cls-6" d="M975,1234.46s94.24,299,100.74,359.61,13.25,315.93,5.67,320.26-52.26,2.22-58.76,1.13S973.4,1658.7,947.4,1597,781.15,1350.36,790.89,1255,975,1234.46,975,1234.46Z"/><path class="cls-19" d="M915.82,847.77S957.7,880.27,962,988.58s30.81,257.35,25.1,258.82-164.44,7.95-180.35,9.09c-24.64,1.76-19.17.53-23.5.53s-26-290.82-20-339.2,52.18-78,89-85.21S915.82,847.77,915.82,847.77Z"/><path class="cls-19" d="M926.83,823.4s.58,23.85-7.29,27.9-29.93,1.2-43.62-2.59c-21-5.81-31.4-10.52-31.94-14.12s4.32-35,8.11-34.48,15.71,7.59,40.08,14.09S926.84,820.7,926.83,823.4Z"/><path class="cls-28" d="M1075.77,1939.6a370.38,370.38,0,0,0,42.24,14.08c21.12,5.42,48.74,15.17,46,23.29s-50.9,8.12-66.61,6-29.2-2.12-45,1.22c-23.1,4.91-30.18.22-29.79-14.58s5.42-30,5.42-30Z"/><path class="cls-27" d="M843.66,873.92s13.4,81.76-72.61,206.09l-7.19-109.64Z"/><polygon class="cls-30" points="1203.2 828.06 1243.06 882.43 1340.38 1234.87 488.76 1470.03 451.88 1438.61 367.32 1132.38 1203.2 828.06"/><rect class="cls-10" x="384.18" y="939.06" width="886.73" height="388.54" transform="translate(-271.81 261.16) rotate(-15.44)"/><rect class="cls-31" x="411.36" y="966.26" width="832.34" height="334.17" transform="translate(-271.82 261.16) rotate(-15.44)"/><rect class="cls-10" x="438.57" y="993.45" width="777.95" height="279.76" transform="translate(-271.81 261.16) rotate(-15.44)"/><path class="cls-31" d="M403.26,1160.41l-21.36-77.35,77.36-21.36a59,59,0,0,1,13.59,24.46,59.63,59.63,0,0,1-41.62,73.35A58.94,58.94,0,0,1,403.26,1160.41Z"/><path class="cls-31" d="M470.85,1405.17l-21.37-77.38a59.64,59.64,0,0,1,98.75,56Z"/><circle class="cls-31" cx="825.69" cy="1133.85" r="117.36" transform="translate(-559.91 915.94) rotate(-45)"/><circle class="cls-31" cx="580.16" cy="1201.65" r="59" transform="translate(-679.77 762.19) rotate(-45)"/><path class="cls-10" d="M823.47,1145.62q-26.52,1.77-38.24-5.61t-16.43-24.37a47.07,47.07,0,0,1,2.93-34q7.82-16.26,27.74-23l-2.83-10.27a5.6,5.6,0,0,1,3.91-6.9h0a5.61,5.61,0,0,1,6.91,3.91l2.78,10.07q35.4-5.7,50.92,20.41a10.13,10.13,0,0,1-5.94,15h0a9.91,9.91,0,0,1-11.35-4.6q-9.63-17.44-29.38-15.4l15.61,56.55q43.24-3.12,52,28.65Q887.06,1174,879,1188t-26.41,20.9l2.81,10.17a5.6,5.6,0,0,1-3.92,6.9h0a5.6,5.6,0,0,1-6.9-3.91l-2.81-10.17q-29.16,5.71-43.32-13.85A9.9,9.9,0,0,1,804,1182.8h0a10.06,10.06,0,0,1,11.07,4.39q7.4,11.32,22.49,9.32Zm11.44-.76,13.49,48.86q20.33-9.63,14.51-30.68-3.13-11.32-10.48-14.86T834.91,1144.86Zm-31.25-71q-22.56,9.39-15.46,35.08,2.89,10.53,9.22,14.88t21.19,4.17Z"/><path class="cls-31" d="M1107.77,910.83a59,59,0,0,1-.91-28l77.36-21.36,21.36,77.35a58.91,58.91,0,0,1-24.47,13.58A59.63,59.63,0,0,1,1107.77,910.83Z"/><path class="cls-31" d="M1182.24,1180.51a59.65,59.65,0,0,1,69.56-74.27l21.36,77.38L1195.79,1205A59.18,59.18,0,0,1,1182.24,1180.51Z"/><circle class="cls-31" cx="1077.63" cy="1064.28" r="59" transform="translate(-436.93 1073.72) rotate(-45)"/><path class="cls-19" d="M842.89,883.79c-1.63,13.27-11.56,42.69-57.77,97.57s-66.44,83.05-62.1,91,121,124.2,121,126.36-29.89,33-29.89,33-120.84-84.9-142.34-110.31c-39.47-46.63-20.22-77.26,5-124.2s94.07-141.94,133.69-147.87S843.5,878.79,842.89,883.79Z"/><path class="cls-23" d="M1244.53,887.75s-15.75,15.6-8.35,34.11,17.76,0,17.76,0,3-10.36,1.49-16.28S1246.21,879.92,1244.53,887.75Z"/><path class="cls-23" d="M888,1234.46c-5.2-3.27-17.36-13.21-27.6-21.78-2.86-4.58,5.34-1.34,9.29-.35s9.87-.25,10.36-1.73-3.7-3.7-11.35-6.17-24.74-5.72-24.74-5.72l-24.56,25.82s38.63,26.18,56,25.82S897.77,1240.6,888,1234.46Z"/><rect class="cls-5" x="2125.93" y="1922.46" width="251.54" height="2.6" transform="translate(-638.08 1275.55) rotate(-27.87)"/><rect class="cls-5" x="2187.76" y="1865.26" width="135.21" height="2.6" transform="translate(-157.3 3524.8) rotate(-74.11)"/><path class="cls-22" d="M1913.84,1046.85c-30-21.28-24.35-200.11-24.35-200.11l21.92,44.6c2.16,33.24-8.5,110.23-.49,145.32C1911.65,1039.82,1912.63,1043.24,1913.84,1046.85Z"/><path class="cls-7" d="M1828.8,1111.78l22.49,25.47s115.44-70.88,142.18-105.26S1940,847.8,1927.26,832.52s-47.53-15.71-47.53,14.85,56.45,149.49,56.45,159.2S1828.8,1111.78,1828.8,1111.78Z"/><path class="cls-32" d="M1771.19,750.18s-8.3,25.61-28.35,38.75l8.14,15.61S1776.6,782,1771.19,750.18Z"/><path class="cls-32" d="M931.57,804.68c-6.11-1.2-7.56,5-9.38,12.41-22.35-16.49-22.85-40.49-22.85-40.49C912,797.65,927.23,803.41,931.57,804.68Z"/><circle class="cls-33" cx="2128.08" cy="1876.78" r="15.66"/><circle class="cls-33" cx="1438.62" cy="1882.22" r="15.66" transform="translate(-909.56 1568.55) rotate(-45)"/><circle class="cls-33" cx="2342.42" cy="1790.21" r="9.71"/><circle class="cls-33" cx="1869.1" cy="1936.04" r="9.71"/><circle class="cls-33" cx="2206.1" cy="1594.32" r="9.71"/><path class="cls-33" d="M2196.55,1699.87a5.94,5.94,0,1,1-5.94-5.94A5.94,5.94,0,0,1,2196.55,1699.87Z"/><circle class="cls-33" cx="1988.36" cy="1378.26" r="11.03"/><path class="cls-33" d="M2058.33,1414.19a5.94,5.94,0,1,1-5.94-5.94A5.94,5.94,0,0,1,2058.33,1414.19Z"/><circle class="cls-33" cx="1385.85" cy="1904.7" r="5.94"/><path class="cls-33" d="M1857.23,1962.81a5.94,5.94,0,1,1-5.94-5.94A5.95,5.95,0,0,1,1857.23,1962.81Z"/><circle class="cls-33" cx="1586.37" cy="1945.53" r="5.94"/><circle class="cls-33" cx="2052.39" cy="1925.11" r="20.41" transform="translate(-760.13 2015.11) rotate(-45)"/><circle class="cls-33" cx="1405.56" cy="1951.47" r="20.41" transform="translate(-639.8 686.43) rotate(-22.5)"/></g></g></g></svg>