<svg xmlns="http://www.w3.org/2000/svg" width="132.39mm" height="92.64mm" viewBox="0 0 375.29 262.6"><defs><style>.cls-1{isolation:isolate;}.cls-2{fill:#1f396f;}.cls-3{fill:#73cae6;}.cls-4{fill:#f6f6f5;}.cls-5{fill:#f9c10d;}.cls-6,.cls-9{mix-blend-mode:multiply;}.cls-7,.cls-9{fill:#ededed;}.cls-8{fill:#facbb4;}</style></defs><g class="cls-1"><g id="レイヤー_2" data-name="レイヤー 2"><g id="Capa_1" data-name="Capa 1"><path class="cls-2" d="M11.65,256.52c-5.46,0-9.9-3.93-9.9-8.76V16.47c0-4.83,4.44-8.76,9.9-8.76h.18l46.6,4.85c11.15,1.21,13.49,5.11,13.49,8.17V243.49c0,4.33-4.83,7.24-13.58,8.19l-46.51,4.83Z"/><path class="cls-2" d="M11.65,9.46l46.6,4.84c6.62.72,11.92,2.7,11.92,6.44V243.49c0,3.74-5.5,5.74-12,6.45l-46.5,4.84c-4.5,0-8.16-3.15-8.16-7V16.47c0-3.87,3.66-7,8.16-7m0-3.49C5.23,6,0,10.68,0,16.47V247.76c0,5.8,5.23,10.51,11.65,10.51l.36,0,46.5-4.84c13.19-1.43,15.15-6.83,15.15-9.92V20.74c0-3.78-2.61-8.56-15-9.91L12,6a2.17,2.17,0,0,0-.36,0Z"/><path class="cls-3" d="M27.79,255c-4.77,0-8.51-5-8.51-11.32V20.56c0-6.35,3.74-11.32,8.51-11.32h.1l76.16,8.29c4.42.07,7.86,4.73,7.86,10.67V236c0,5.94-3.44,10.6-7.86,10.67L27.89,255Z"/><path class="cls-2" d="M27.79,11,104,19.28c3.43,0,6.21,4,6.21,8.92V236c0,4.93-2.78,8.93-6.21,8.93l-76.16,8.29c-3.73,0-6.77-4.29-6.77-9.58V20.56c0-5.29,3-9.57,6.77-9.57M28,7.49h-.19c-5.75,0-10.26,5.75-10.26,13.07V243.67c0,7.33,4.51,13.07,10.26,13.07H28l.19,0,76-8.27c5.33-.15,9.49-5.55,9.49-12.42V28.2c0-6.87-4.16-12.27-9.49-12.41l-76-8.28-.19,0Z"/><path class="cls-4" d="M102.89,209.8c0,4-2.33,7.3-5.2,7.3L34.6,223.35c-3.13,0-5.66-3.52-5.66-7.84V32.89c0-4.33,2.53-7.84,5.66-7.84l63.09,7.33c2.87,0,5.2,3.27,5.2,7.3Z"/><path class="cls-5" d="M56.24,243.69c-3,0-5.52-2.76-5.52-6.15s2.41-6.08,5.41-6.15l30.46-3.77h.11c3,0,5.51,2.76,5.51,6.15s-2.41,6.08-5.4,6.15l-30.46,3.77Z"/><path class="cls-2" d="M86.7,229.3c2.11,0,3.83,2,3.83,4.47s-1.72,4.46-3.83,4.46L56.24,242c-2.12,0-3.83-2-3.83-4.47s1.71-4.46,3.83-4.46L86.7,229.3m0-3.37h-.21l-.21,0L56,229.71c-3.86.14-7,3.6-7,7.83s3.24,7.84,7.21,7.84h.21l.21,0,30.28-3.75c3.86-.14,7-3.6,7-7.83s-3.23-7.84-7.2-7.84Z"/><g class="cls-6"><path class="cls-7" d="M104,19.28,69,15.47V248.76l35-3.8c3.43,0,6.21-4,6.21-8.93V28.2C110.16,23.27,107.38,19.28,104,19.28Z"/></g><path class="cls-2" d="M33.83,200.87a1.69,1.69,0,0,1-1.69-1.68V187.54a1.69,1.69,0,1,1,3.37,0v11.65A1.68,1.68,0,0,1,33.83,200.87Zm0-26.21A1.69,1.69,0,0,1,32.14,173V158.41a1.69,1.69,0,1,1,3.37,0V173A1.69,1.69,0,0,1,33.83,174.66Zm0-26.22a1.69,1.69,0,0,1-1.69-1.68V132.19a1.69,1.69,0,0,1,3.37,0v14.57A1.68,1.68,0,0,1,33.83,148.44Zm0-29.13a1.69,1.69,0,0,1-1.69-1.68V106a1.69,1.69,0,1,1,3.37,0v11.65A1.68,1.68,0,0,1,33.83,119.31Zm0-26.21a1.69,1.69,0,0,1-1.69-1.69V76.85a1.69,1.69,0,1,1,3.37,0V91.41A1.69,1.69,0,0,1,33.83,93.1Zm0-26.22a1.69,1.69,0,0,1-1.69-1.68V50.63a1.69,1.69,0,0,1,3.37,0V65.2A1.68,1.68,0,0,1,33.83,66.88Z"/><line class="cls-8" x1="68.98" y1="88.37" x2="68.98" y2="184.76"/><path class="cls-2" d="M69,187.56a2.8,2.8,0,0,1-2.79-2.8V88.37a2.8,2.8,0,1,1,5.59,0v96.39A2.8,2.8,0,0,1,69,187.56Z"/><path class="cls-8" d="M166.09,61.26c-4.23,0-9.67-5.49-12.14-12.23a4.19,4.19,0,0,1,.55-3.76c4-6.39,23.95-12.87,35.46-14.12a23.78,23.78,0,0,1,2.57-.15c6.21,0,8.17,3.1,8.71,5.71.08.37.18.76.28,1.17.77,3.13,2.06,8.36-4.2,11.08-4.25,1.86-7.7,3.45-10.74,4.85-7.47,3.44-12.41,5.71-19.4,7.32A4.93,4.93,0,0,1,166.09,61.26Z"/><path class="cls-2" d="M192.53,32.51c4.94,0,6.72,2,7.23,4.51.67,3.18,2.75,8-3,10.56-14.87,6.49-20.28,9.87-29.87,12.08a3.08,3.08,0,0,1-.75.08c-3.54,0-8.49-5.13-10.72-11.23-2.11-5.79,20.8-14.35,34.76-15.86a23.55,23.55,0,0,1,2.4-.14m0-3h0a24.11,24.11,0,0,0-2.73.16c-11.68,1.26-32.22,7.82-36.59,14.83a5.62,5.62,0,0,0-.68,5.07c2.38,6.5,8.1,13.22,13.56,13.22a6.74,6.74,0,0,0,1.43-.16c7.15-1.65,12.14-4,19.69-7.43,3-1.4,6.48-3,10.71-4.83,7.43-3.23,5.83-9.72,5.07-12.83-.1-.39-.19-.77-.27-1.12-.54-2.58-2.59-6.91-10.19-6.91Z"/><path class="cls-5" d="M220,73.61a19.44,19.44,0,0,1-5.89-.93A19.14,19.14,0,0,1,220,35.34a19.37,19.37,0,0,1,5.88.93A19.14,19.14,0,0,1,220,73.61Z"/><path class="cls-2" d="M220,36.66A17.81,17.81,0,1,1,203,49a17.7,17.7,0,0,1,17-12.34M220,34h0a20.42,20.42,0,1,0,6.28,1A20.39,20.39,0,0,0,220,34Z"/><path class="cls-4" d="M219.46,61.4a5.43,5.43,0,0,1-1.63-.25A5.35,5.35,0,0,1,215,59a3.78,3.78,0,0,1-.5-3.27.74.74,0,0,1,.93-.47.73.73,0,0,1,.47.93,2.37,2.37,0,0,0,.33,2,3.89,3.89,0,0,0,2.08,1.53c1.82.59,3.67-.31,4-1.47.17-.51.61-1.88-2.33-3s-4.38-3-3.74-5c.76-2.34,3.13-3.31,5.89-2.42,2.55.83,4.06,3.26,3.37,5.41a.74.74,0,0,1-1.41-.45c.45-1.38-.63-3-2.41-3.55-1.56-.51-3.44-.38-4,1.46s2.06,2.89,2.88,3.21c3.68,1.43,3.58,3.65,3.2,4.85A4.38,4.38,0,0,1,219.46,61.4Z"/><path class="cls-4" d="M217.24,63.7a.91.91,0,0,1-.23,0,.73.73,0,0,1-.47-.93l.71-2.19a.74.74,0,0,1,1.4.46l-.71,2.18A.73.73,0,0,1,217.24,63.7Z"/><path class="cls-4" d="M222,49.13a.93.93,0,0,1-.23,0,.73.73,0,0,1-.47-.93l.78-2.4a.75.75,0,0,1,.93-.48.74.74,0,0,1,.47.93l-.78,2.41A.74.74,0,0,1,222,49.13Z"/><path class="cls-5" d="M230.22,46.41a12.59,12.59,0,0,1,1.36,2.13"/><path class="cls-2" d="M231.58,49.34a.79.79,0,0,1-.71-.44,11,11,0,0,0-1.28-2,.81.81,0,0,1,.14-1.13.8.8,0,0,1,1.12.14,13.37,13.37,0,0,1,1.45,2.26.8.8,0,0,1-.35,1.07A.81.81,0,0,1,231.58,49.34Z"/><path class="cls-5" d="M232.38,58.48A13,13,0,1,1,224,42.08"/><path class="cls-2" d="M220,68.31a14,14,0,0,1-4.27-.68,13.82,13.82,0,0,1,8.5-26.31.78.78,0,0,1,.51,1,.81.81,0,0,1-1,.52,12.23,12.23,0,1,0,7.88,15.39.79.79,0,0,1,1-.51.78.78,0,0,1,.51,1A13.85,13.85,0,0,1,220,68.31Z"/><path class="cls-2" d="M219.46,61.4a5.43,5.43,0,0,1-1.63-.25A5.35,5.35,0,0,1,215,59a3.78,3.78,0,0,1-.5-3.27.74.74,0,0,1,.93-.47.73.73,0,0,1,.47.93,2.37,2.37,0,0,0,.33,2,3.89,3.89,0,0,0,2.08,1.53c1.82.59,3.67-.31,4-1.47.17-.51.61-1.88-2.33-3s-4.38-3-3.74-5c.76-2.34,3.13-3.31,5.89-2.42,2.55.83,4.06,3.26,3.37,5.41a.74.74,0,0,1-1.41-.45c.45-1.38-.63-3-2.41-3.55-1.56-.51-3.44-.38-4,1.46s2.06,2.89,2.88,3.21c3.68,1.43,3.58,3.65,3.2,4.85A4.38,4.38,0,0,1,219.46,61.4Z"/><path class="cls-2" d="M217.24,63.7a.91.91,0,0,1-.23,0,.73.73,0,0,1-.47-.93l.71-2.19a.74.74,0,0,1,1.4.46l-.71,2.18A.73.73,0,0,1,217.24,63.7Z"/><path class="cls-2" d="M222,49.13a.93.93,0,0,1-.23,0,.73.73,0,0,1-.47-.93l.78-2.4a.75.75,0,0,1,.93-.48.74.74,0,0,1,.47.93l-.78,2.41A.74.74,0,0,1,222,49.13Z"/><path class="cls-4" d="M208.32,50.39s.92-6,.7-6.38-5.52-3-5.52-3,6,.9,6.39.69,3-5.51,3-5.51-1,5.86-.77,6.23,5.59,3.19,5.59,3.19-5.95-.91-6.35-.71S208.32,50.39,208.32,50.39Z"/><g class="cls-6"><path class="cls-7" d="M225.46,37.53l-.08,0L214.43,71.4l.08,0a17.81,17.81,0,0,0,11-33.89Z"/></g><path class="cls-5" d="M232.54,117.07a19.13,19.13,0,1,1,17.28-10.94,19.15,19.15,0,0,1-17.28,10.94Z"/><path class="cls-2" d="M232.54,80.12a17.82,17.82,0,1,1-6,1,17.83,17.83,0,0,1,6-1m0-2.63h0a20.45,20.45,0,1,0,19.25,13.58,20.43,20.43,0,0,0-19.25-13.58Z"/><path class="cls-4" d="M233,104.87a4.2,4.2,0,0,1-4.09-2.57.74.74,0,0,1,.45-.94.73.73,0,0,1,.94.44c.49,1.37,2.32,2,4.08,1.35s2.72-2.48,2.31-3.63c-.18-.5-.66-1.86-3.69-1s-5.33.26-6-1.71c-.83-2.31.46-4.52,3.19-5.5,2.53-.9,5.21.1,6,2.23a.74.74,0,0,1-.45,1,.75.75,0,0,1-.94-.45c-.49-1.37-2.32-2-4.08-1.35-1.54.56-3,1.8-2.31,3.63s3.4,1,4.23.78c3.79-1.11,5.07.71,5.5,1.9.73,2.06-.77,4.64-3.2,5.51A5.73,5.73,0,0,1,233,104.87Z"/><path class="cls-4" d="M235.54,107.08a.74.74,0,0,1-.7-.49l-.76-2.17a.73.73,0,1,1,1.38-.49l.77,2.17a.73.73,0,0,1-.45.94A.67.67,0,0,1,235.54,107.08Z"/><path class="cls-4" d="M230.39,92.65a.73.73,0,0,1-.69-.49l-.85-2.38a.74.74,0,0,1,1.39-.49l.85,2.38a.75.75,0,0,1-.45.94A.73.73,0,0,1,230.39,92.65Z"/><path class="cls-5" d="M235.74,85.31a12.53,12.53,0,0,1,2.38.86"/><path class="cls-2" d="M238.12,87a.89.89,0,0,1-.35-.08,11.29,11.29,0,0,0-2.22-.8.8.8,0,0,1-.58-1,.81.81,0,0,1,1-.59,13,13,0,0,1,2.53.92.8.8,0,0,1-.35,1.52Z"/><path class="cls-5" d="M244.81,93.56a13,13,0,1,1-16.65-7.89"/><path class="cls-2" d="M232.53,111.77a13.83,13.83,0,0,1-4.64-26.86.8.8,0,0,1,.54,1.51,12.23,12.23,0,1,0,15.63,7.41.8.8,0,0,1,1.51-.54,13.85,13.85,0,0,1-13,18.48Z"/><path class="cls-2" d="M233,104.87a4.2,4.2,0,0,1-4.09-2.57.74.74,0,0,1,.45-.94.73.73,0,0,1,.94.44c.49,1.37,2.32,2,4.08,1.35s2.72-2.48,2.31-3.63c-.18-.5-.66-1.86-3.69-1s-5.33.26-6-1.71c-.83-2.31.46-4.52,3.19-5.5,2.53-.9,5.21.1,6,2.23a.74.74,0,0,1-.45,1,.75.75,0,0,1-.94-.45c-.49-1.37-2.32-2-4.08-1.35-1.54.56-3,1.8-2.31,3.63s3.4,1,4.23.78c3.79-1.11,5.07.71,5.5,1.9.73,2.06-.77,4.64-3.2,5.51A5.73,5.73,0,0,1,233,104.87Z"/><path class="cls-2" d="M235.54,107.08a.74.74,0,0,1-.7-.49l-.76-2.17a.73.73,0,1,1,1.38-.49l.77,2.17a.73.73,0,0,1-.45.94A.67.67,0,0,1,235.54,107.08Z"/><path class="cls-2" d="M230.39,92.65a.73.73,0,0,1-.69-.49l-.85-2.38a.74.74,0,0,1,1.39-.49l.85,2.38a.75.75,0,0,1-.45.94A.73.73,0,0,1,230.39,92.65Z"/><path class="cls-4" d="M220.8,101.8s-2.91-5.28-3.32-5.48-6.24,1-6.24,1,5.29-2.93,5.49-3.35a58.37,58.37,0,0,0-1-6.22s2.81,5.24,3.19,5.41,6.38-.87,6.38-.87-5.28,2.9-5.47,3.3S220.8,101.8,220.8,101.8Z"/><g class="cls-6"><path class="cls-7" d="M226.56,81.16l-.08,0,12,33.55.08,0a17.81,17.81,0,0,0-12-33.55Z"/></g><path class="cls-8" d="M171,58c-4.08,0-9.73-3.47-13.42-8.26A4.18,4.18,0,0,1,157,46c1.88-7.3,19-19.49,29.57-24.14a16.05,16.05,0,0,1,6.35-1.6,6.54,6.54,0,0,1,6.08,3.5c.18.33.39.67.61,1,1.68,2.75,4.49,7.36-.67,11.85-3.5,3.05-6.31,5.6-8.8,7.86-6.08,5.52-10.09,9.16-16.28,12.8A5.48,5.48,0,0,1,171,58Z"/><path class="cls-2" d="M192.93,21.78a5.08,5.08,0,0,1,4.76,2.73c1.6,2.84,5,6.84.27,11C185.73,46.17,181.59,51,173.11,56a4,4,0,0,1-2.07.5c-3.52,0-8.75-3.17-12.22-7.67-3.76-4.89,15.51-20,28.37-25.59a14.65,14.65,0,0,1,5.74-1.47m0-3h0a17.49,17.49,0,0,0-7,1.72c-10.76,4.72-28.38,17.16-30.43,25.15a5.66,5.66,0,0,0,.87,5c4,5.21,10,8.85,14.62,8.85a7,7,0,0,0,3.6-.92c6.32-3.71,10.38-7.4,16.53-13,2.48-2.25,5.29-4.81,8.78-7.85,6.11-5.32,2.63-11,1-13.77-.21-.34-.41-.67-.58-1a8.05,8.05,0,0,0-7.4-4.27Z"/><path class="cls-8" d="M129.73,45.2C139.49,32,160,14.25,164.66,12.3c9.07-3.8,15-6.48,19.5-8.33,5.76-2.39,32.52-6.14,36.37,6.47,3.67,12-19.84,7.89-29.82,13.23-4.92,2.64-10.43,12.11-12.75,17.69-7.18,17.25-15.68,30.73-22.38,34.88l.18.38L70.47,155.56V93.81Z"/><path class="cls-2" d="M70.47,157.08a1.63,1.63,0,0,1-.61-.13,1.5,1.5,0,0,1-.9-1.39V93.81a1.52,1.52,0,0,1,.55-1.17l59.12-48.5c10-13.35,30.55-31.19,35.45-33.24s9.08-3.85,12.37-5.28c2.78-1.2,5.1-2.21,7.13-3.05,5-2.07,21.76-4.57,31.5,0C218.67,4.29,221,6.78,222,10a7.19,7.19,0,0,1-.53,6.24c-2.51,3.88-9.18,4.73-16.25,5.63-5.1.65-10.38,1.32-13.76,3.14-4.42,2.37-9.82,11.5-12.07,16.93-7.2,17.27-15.39,30.21-22.12,35a1.55,1.55,0,0,1-.45.78l-85.3,78.94A1.47,1.47,0,0,1,70.47,157.08ZM72,94.52v57.59l82.09-76a1.52,1.52,0,0,1,.71-1.17c6.28-3.89,14.63-17,21.78-34.18,2.33-5.59,8-15.54,13.44-18.44,3.87-2.07,9.43-2.78,14.81-3.47,6.07-.77,12.34-1.57,14.09-4.27a4.32,4.32,0,0,0,.18-3.72,9.17,9.17,0,0,0-5.29-5.55c-8.89-4.2-25.06-1.62-29,0-2,.84-4.33,1.84-7.09,3-3.3,1.43-7.42,3.21-12.41,5.3-4.05,1.7-24.32,19-34.29,32.41a1.28,1.28,0,0,1-.26.26ZM129.73,45.2h0Z"/><path class="cls-8" d="M204.05,1.63c12,1.5,23.26,5.88,27,13.15,6.22,11.91,14.78,21.73,9.11,23.84-6.94,2.59-20.94-5.87-30.1-19.22"/><path class="cls-2" d="M237.41,40.59c-8.21,0-20.37-8.41-28.54-20.34a1.51,1.51,0,1,1,2.49-1.71c9.13,13.32,22.5,20.84,28.33,18.66.65-.24.75-.53.79-.66.64-1.83-2.41-6.88-5.37-11.77-1.7-2.8-3.62-6-5.35-9.29-3.18-6.1-12.87-10.72-25.89-12.35a1.51,1.51,0,0,1-1.32-1.68A1.53,1.53,0,0,1,204.24.13c14,1.75,24.55,7,28.2,14,1.68,3.22,3.58,6.36,5.26,9.13,3.91,6.47,6.74,11.15,5.64,14.33a4.1,4.1,0,0,1-2.6,2.49A9.43,9.43,0,0,1,237.41,40.59Z"/><path class="cls-8" d="M169.48,54.75c11.71,3.06,17.63,8.11,31,13.65,13.15,5.44,9.59,13.62,6.76,14.71-2.35.9-56.84-5.36-56.84-5.36"/><path class="cls-2" d="M206.15,84.65c-8,0-41-3.69-55.92-5.4a1.51,1.51,0,1,1,.34-3c20.2,2.32,53.12,5.81,56.2,5.42a4,4,0,0,0,1.64-3.33c0-1.86-1-5.46-8.51-8.55-5.44-2.25-9.72-4.45-13.5-6.4-5.62-2.89-10.47-5.39-17.3-7.17a1.51,1.51,0,0,1,.76-2.93C177,55.16,182,57.73,187.78,60.7c3.73,1.92,7.95,4.1,13.28,6.3,9.1,3.77,10.4,8.75,10.37,11.38,0,3.13-1.87,5.46-3.65,6.14A6,6,0,0,1,206.15,84.65Z"/><path class="cls-5" d="M188.84,138.9a1.56,1.56,0,0,1-1.5-1.12A1.58,1.58,0,0,1,188,136L274,80.35a1.56,1.56,0,0,1,.85-.25,1.51,1.51,0,0,1,.85.25L361.79,136a1.57,1.57,0,0,1-.85,2.88Z"/><path class="cls-2" d="M274.89,81.67l86.05,55.67H188.84l86-55.67m0-3.13a3.09,3.09,0,0,0-1.7.5l-86.05,55.67a3.13,3.13,0,0,0,1.7,5.76h172.1a3.13,3.13,0,0,0,1.7-5.76L276.59,79a3,3,0,0,0-1.7-.5Z"/><rect class="cls-5" x="210.7" y="148.99" width="22.44" height="85.42"/><path class="cls-2" d="M231.58,150.55v82.29H212.27V150.55h19.31m3.13-3.13H209.13V236h25.58V147.42Z"/><rect class="cls-4" x="216.96" y="150.55" width="9.92" height="82.29"/><rect class="cls-5" x="246.19" y="148.99" width="22.44" height="85.42"/><path class="cls-2" d="M267.06,150.55v82.29H247.75V150.55h19.31m3.13-3.13H244.62V236h25.57V147.42Z"/><rect class="cls-4" x="252.45" y="150.55" width="9.91" height="82.29"/><rect class="cls-5" x="281.68" y="148.99" width="22.44" height="85.42"/><path class="cls-2" d="M302.55,150.55v82.29H283.24V150.55h19.31m3.13-3.13H280.11V236h25.57V147.42Z"/><rect class="cls-4" x="287.94" y="150.55" width="9.92" height="82.29"/><rect class="cls-5" x="317.16" y="148.99" width="22.44" height="85.42"/><path class="cls-2" d="M338,150.55v82.29H318.73V150.55H338m3.13-3.13H315.6V236h25.57V147.42Z"/><rect class="cls-4" x="323.43" y="150.55" width="9.92" height="82.29"/><path class="cls-5" d="M188.78,231.28H361a1.56,1.56,0,0,1,1.56,1.56v13.21a1.57,1.57,0,0,1-1.57,1.57H188.78a1.57,1.57,0,0,1-1.57-1.57V232.84A1.57,1.57,0,0,1,188.78,231.28Z"/><path class="cls-2" d="M361,232.84v13.21H188.78V232.84H361m0-3.13H188.78a3.13,3.13,0,0,0-3.13,3.13v13.21a3.14,3.14,0,0,0,3.13,3.14H361a3.14,3.14,0,0,0,3.13-3.14V232.84a3.13,3.13,0,0,0-3.13-3.13Z"/><rect class="cls-5" x="187.21" y="135.77" width="175.35" height="16.35" rx="1.57"/><path class="cls-2" d="M361,137.34v13.21H188.78V137.34H361m0-3.13H188.78a3.13,3.13,0,0,0-3.13,3.13v13.21a3.13,3.13,0,0,0,3.13,3.13H361a3.13,3.13,0,0,0,3.13-3.13V137.34a3.13,3.13,0,0,0-3.13-3.13Z"/><rect class="cls-4" x="188.78" y="141.68" width="172.22" height="4.52"/><rect class="cls-5" x="176.16" y="244.39" width="197.46" height="16.54" rx="1.66"/><path class="cls-2" d="M372,246.05v13.22H177.83V246.05H372m0-3.32H177.83a3.33,3.33,0,0,0-3.33,3.32v13.22a3.33,3.33,0,0,0,3.33,3.33H372a3.33,3.33,0,0,0,3.33-3.33V246.05a3.33,3.33,0,0,0-3.33-3.32Z"/><path class="cls-4" d="M274.89,125.16a15.66,15.66,0,1,1,15.66-15.66A15.68,15.68,0,0,1,274.89,125.16Z"/><path class="cls-2" d="M274.89,95.41A14.09,14.09,0,1,1,260.8,109.5a14.09,14.09,0,0,1,14.09-14.09m0-3.13a17.22,17.22,0,1,0,17.23,17.22,17.24,17.24,0,0,0-17.23-17.22Z"/><path class="cls-2" d="M274.89,117.08c-2.9,0-5.26-2-5.26-4.45a.8.8,0,0,1,1.6,0c0,1.58,1.64,2.85,3.66,2.85s3.67-1.53,3.67-2.85c0-.58,0-2.13-3.4-2.33s-5.53-1.68-5.53-3.93c0-2.66,2.12-4.45,5.26-4.45,2.9,0,5.26,2,5.26,4.45a.79.79,0,0,1-.8.79.79.79,0,0,1-.79-.79c0-1.57-1.65-2.85-3.67-2.85-1.77,0-3.66.74-3.66,2.85,0,1.95,3.08,2.28,4,2.33,4.26.26,4.9,2.58,4.9,3.93C280.15,115,277.64,117.08,274.89,117.08Z"/><path class="cls-2" d="M274.89,120a.79.79,0,0,1-.79-.8v-2.49a.79.79,0,0,1,.79-.79.79.79,0,0,1,.8.79v2.49A.8.8,0,0,1,274.89,120Z"/><path class="cls-2" d="M274.89,103.38a.79.79,0,0,1-.79-.8V99.85a.79.79,0,0,1,.79-.8.8.8,0,0,1,.8.8v2.73A.8.8,0,0,1,274.89,103.38Z"/><path class="cls-9" d="M361,246.05V232.84H338V150.55h23V137.34h-.06L274.89,81.67l-.78.5v68.38h9.13v82.29h-9.13v26.43H372V246.05Zm-42.27-13.21H302.55V150.55h16.18Z"/></g></g></g></svg>